<?xml version="1.0" encoding="UTF-8"?>
<!-- Generator: Adobe Illustrator 26.0.1, SVG Export Plug-In . SVG Version: 6.00 Build 0)  -->
<svg xmlns="http://www.w3.org/2000/svg" xmlns:xlink="http://www.w3.org/1999/xlink" version="1.1" id="Layer_1" x="0px" y="0px" viewBox="0 0 250 120" style="enable-background:new 0 0 250 120;" xml:space="preserve">
<g>
	<g>
		<path d="M23.17,63.17c1.14-4.27,3.89-6.88,8.2-7.84c1.97-0.44,3.91-0.31,5.61,0.92c0.63,0.45,1.05,0.07,1.53-0.17    c1.82-0.92,1.82-0.93,1.82,1.09c0,1.12,0.01,2.24-0.01,3.36c-0.01,0.34,0.16,0.85-0.27,0.96c-0.39,0.1-0.54-0.41-0.74-0.7    c-0.62-0.9-1.21-1.81-1.81-2.72c-1.17-1.76-2.87-2.36-4.91-2.15c-1.92,0.2-3.28,1.2-4.01,2.98c-1.05,2.54-1.1,5.2-0.91,7.88    c0.09,1.25,0.26,2.49,0.71,3.68c0.77,2.02,2.13,3.35,4.36,3.53c2.28,0.18,4.18-0.52,5.37-2.62c0.54-0.95,1.14-1.86,1.72-2.78    c0.1-0.16,0.22-0.37,0.45-0.31c0.24,0.06,0.23,0.3,0.23,0.49c0.01,1.81,0.01,3.63,0,5.44c0,0.54-0.35,0.67-0.71,0.36    c-1.3-1.13-2.44-0.74-3.9-0.1c-3.91,1.7-9.46-0.68-11.69-4.76c-0.48-0.88-0.74-1.83-1.05-2.77    C23.17,65.68,23.17,64.42,23.17,63.17z"></path>
		<path d="M97.94,55.37c2.09,0.06,4.45-0.17,6.77,0.42c4.22,1.07,6.95,3.9,7.29,7.64c0.54,5.89-2.5,9.82-8.39,10.88    c-2.17,0.39-4.36,0.17-6.55,0.22c-1.42,0.03-2.85,0.01-4.28,0c-0.25,0-0.61,0.05-0.64-0.3c-0.03-0.44,0.37-0.38,0.65-0.4    c1.76-0.17,1.76-0.17,1.76-1.96c0-4.85-0.02-9.69,0.02-14.54c0.01-0.93-0.22-1.34-1.21-1.25c-0.41,0.04-1.18,0.24-1.17-0.32    c0.01-0.66,0.79-0.35,1.22-0.37C94.84,55.34,96.26,55.37,97.94,55.37z M98.49,64.96c0,2.61,0,5.21,0,7.82c0,0.03,0,0.07,0,0.1    c0.02,0.38-0.08,0.79,0.5,0.92c3.24,0.76,6.75-1.05,7.88-4.25c1.07-3.01,1.05-6.11,0.03-9.13c-0.81-2.42-2.56-3.89-5.14-4.24    c-0.72-0.1-1.46-0.03-2.18-0.09c-0.81-0.07-1.11,0.21-1.1,1.05C98.52,59.74,98.49,62.35,98.49,64.96z"></path>
		<path d="M65.44,65.06c-0.02,5.26-4.75,9.86-10.11,9.84C50,74.88,45.18,70.09,45.25,64.88c0.07-5.28,4.86-9.91,10.22-9.88    C60.89,55.03,65.46,59.64,65.44,65.06z M60.96,65.18c0.02-1.45,0.02-2.8-0.26-4.13c-0.13-0.61-0.29-1.22-0.51-1.8    c-0.84-2.28-2.42-3.36-4.84-3.35c-2.39,0.01-4.07,1.11-4.8,3.4c-1.18,3.74-1.18,7.53-0.01,11.28c0.73,2.34,2.42,3.44,4.87,3.44    c2.46,0,4.03-1.12,4.85-3.47C60.88,68.77,61.01,66.94,60.96,65.18z"></path>
		<path d="M132.3,68.13c0.25,0.11,0.23,0.29,0.24,0.44c0.01,1.72-0.01,3.43,0.01,5.15c0.01,0.6-0.25,0.82-0.83,0.81    c-5.14-0.01-10.28,0-15.42-0.01c-0.27,0-0.7,0.07-0.69-0.35c0.01-0.4,0.42-0.34,0.7-0.36c0.2-0.02,0.4-0.03,0.6,0    c0.8,0.09,1.03-0.28,1.02-1.03c-0.02-5.21-0.03-10.42,0-15.63c0-0.83-0.3-1.11-1.11-1.07c-0.41,0.02-1.16,0.24-1.18-0.33    c-0.02-0.62,0.73-0.36,1.13-0.36c4.71-0.02,9.42,0.01,14.13-0.03c0.92-0.01,1.25,0.3,1.2,1.2c-0.05,1.12-0.01,2.24-0.02,3.36    c0,0.19,0.01,0.44-0.21,0.52c-0.31,0.12-0.39-0.17-0.5-0.36c-0.67-1.14-1.36-2.26-2.27-3.24c-0.48-0.52-1.03-0.77-1.75-0.75    c-1.49,0.04-2.99,0.04-4.48,0c-0.7-0.02-0.93,0.26-0.92,0.93c0.03,1.98,0.03,3.96,0,5.94c-0.01,0.65,0.22,0.83,0.89,0.97    c2.52,0.53,3.59-1.06,4.57-2.87c0.15-0.28,0.23-0.76,0.61-0.68c0.39,0.08,0.26,0.55,0.26,0.86c0.01,2.01,0.01,4.02,0,6.04    c0,0.31,0.13,0.78-0.26,0.86c-0.38,0.08-0.44-0.42-0.61-0.68c-0.16-0.25-0.34-0.5-0.45-0.77c-0.83-1.93-2.39-2.34-4.3-2.08    c-0.5,0.07-0.7,0.26-0.7,0.74c0.01,2.57,0.01,5.15,0,7.72c0,0.56,0.27,0.75,0.8,0.74c1.86-0.01,3.71-0.02,5.57,0    c0.55,0.01,0.84-0.29,1.12-0.68c0.96-1.32,1.7-2.75,2.36-4.23C131.94,68.61,131.98,68.26,132.3,68.13z"></path>
		<path d="M71.99,56.76c0,0.98,0,1.97,0,2.95c0,4.29,0.02,8.58-0.02,12.87c-0.01,0.94,0.25,1.37,1.23,1.23    c0.16-0.02,0.33,0,0.5,0.01c0.23,0.02,0.51,0.02,0.54,0.32c0.03,0.39-0.31,0.38-0.56,0.38c-1.43,0.01-2.85,0.01-4.28,0    c-0.25,0-0.59,0.01-0.56-0.38c0.03-0.3,0.31-0.3,0.54-0.32c0.16-0.01,0.33-0.03,0.5-0.01c0.85,0.1,1.08-0.3,1.07-1.09    c-0.03-4.39-0.01-8.78-0.01-13.17c0-0.82-0.03-1.65,0.01-2.47c0.03-0.71-0.22-1.07-0.97-0.99c-0.2,0.02-0.4,0-0.6-0.01    c-0.23-0.02-0.51-0.02-0.54-0.32c-0.03-0.39,0.31-0.38,0.56-0.38c2.19-0.01,4.38,0,6.57-0.01c0.62,0,0.84,0.45,1.12,0.86    c2.29,3.36,4.57,6.73,6.85,10.09c0.22,0.32,0.46,0.63,0.7,0.95c0.31-0.23,0.2-0.52,0.2-0.76c0.01-3.1-0.02-6.2,0.02-9.3    c0.01-0.87-0.27-1.19-1.14-1.13c-0.38,0.03-1.07,0.22-1.08-0.33c-0.02-0.61,0.67-0.35,1.04-0.36c1.23-0.03,2.45-0.02,3.68,0    c0.25,0,0.61-0.05,0.63,0.31c0.02,0.43-0.38,0.37-0.66,0.4c-1.44,0.14-1.44,0.14-1.44,1.61c0,5.15,0,10.29,0,15.44    c0,0.23,0.01,0.46,0,0.69c-0.02,0.32,0.11,0.76-0.25,0.89c-0.38,0.13-0.53-0.31-0.72-0.56c-2.36-3.23-4.7-6.47-7.05-9.71    c-1.77-2.43-3.53-4.87-5.3-7.3c-0.11-0.16-0.25-0.3-0.37-0.45C72.13,56.72,72.06,56.74,71.99,56.76z"></path>
		<path d="M147.66,56.36c0,5.72,0.01,11.16-0.01,16.6c0,0.75,0.37,0.85,0.99,0.87c0.41,0.01,1.15-0.27,1.16,0.35    c0,0.63-0.74,0.33-1.15,0.35c-1.19,0.04-2.39,0.02-3.58,0c-0.25,0-0.6,0.04-0.62-0.33c-0.01-0.36,0.33-0.34,0.59-0.38    c1.69-0.22,1.69-0.22,1.69-1.94c0-4.85-0.02-9.7,0.02-14.54c0.01-0.91-0.19-1.4-1.2-1.25c-0.06,0.01-0.13,0.01-0.2,0    c-0.33-0.06-0.88,0.13-0.88-0.38c0.01-0.5,0.56-0.33,0.89-0.34c1.96-0.02,3.91,0.02,5.87-0.02c0.72-0.02,1.16,0.25,1.55,0.83    c2.28,3.4,4.59,6.79,6.89,10.17c0.2,0.3,0.41,0.59,0.63,0.89c0.36-0.24,0.22-0.56,0.22-0.82c0.01-3.03-0.02-6.07,0.03-9.1    c0.01-0.93-0.25-1.37-1.23-1.24c-0.23,0.03-0.46-0.01-0.69-0.03c-0.18-0.02-0.32-0.12-0.34-0.3c-0.02-0.25,0.16-0.36,0.37-0.36    c1.56-0.01,3.12,0,4.67,0.01c0.16,0,0.34,0.07,0.35,0.28c0.02,0.25-0.15,0.34-0.36,0.38c-0.1,0.02-0.2,0.02-0.3,0.03    c-1.62,0.16-1.62,0.16-1.62,1.8c0,5.15,0.01,10.29-0.01,15.44c0,0.44,0.24,1.12-0.18,1.27c-0.47,0.17-0.66-0.53-0.91-0.88    c-3.99-5.47-7.96-10.96-11.94-16.44C148.19,57.03,148,56.81,147.66,56.36z"></path>
		<path d="M219.74,64.94c0,2.61,0.03,5.21-0.02,7.82c-0.01,0.84,0.29,1.13,1.1,1.05c0.46-0.04,0.93-0.01,1.39,0.01    c0.24,0.01,0.5,0.05,0.5,0.35c0,0.31-0.26,0.34-0.5,0.35c-0.66,0.01-1.33,0.01-1.99,0.01c-2.16,0-4.31,0.01-6.47-0.01    c-0.33,0-0.87,0.18-0.9-0.33c-0.03-0.53,0.53-0.37,0.85-0.38c2.09-0.04,2,0.35,2-2.06c0-4.78,0-9.57,0-14.35    c0-1.31-0.02-1.21-1.34-1.35c-1.42-0.14-2.32,0.37-2.96,1.59c-0.57,1.08-1.23,2.11-1.86,3.16c-0.11,0.19-0.19,0.49-0.46,0.45    c-0.31-0.04-0.23-0.36-0.23-0.57c-0.01-1.48,0.01-2.97-0.01-4.45c-0.02-0.86,0.55-0.83,1.14-0.83c4.58,0,9.16,0,13.73,0    c2.98,0,2.98,0,2.98,2.96c0,0.73,0.01,1.45-0.01,2.18c-0.01,0.25,0.11,0.61-0.19,0.7c-0.39,0.11-0.45-0.31-0.58-0.55    c-0.76-1.39-1.56-2.76-2.53-4.02c-0.39-0.5-2.95-0.85-3.44-0.47c-0.31,0.24-0.21,0.61-0.21,0.92    C219.73,59.73,219.74,62.34,219.74,64.94z"></path>
		<path d="M190.23,71.1c0-0.86-0.01-1.72,0.01-2.57c0.01-0.27-0.05-0.66,0.33-0.74c0.31-0.06,0.43,0.26,0.56,0.48    c0.61,0.98,1.27,1.94,1.79,2.97c0.58,1.15,1.53,1.78,2.69,2.2c1.45,0.53,2.92,0.59,4.39,0.15c1.29-0.39,2.08-1.28,2.27-2.61    c0.2-1.38-0.32-2.46-1.54-3.18c-1.5-0.88-3.19-1.28-4.78-1.94c-0.7-0.29-1.43-0.55-2.09-0.92c-2.85-1.6-3.57-4.75-1.73-7.46    c1.68-2.48,5.13-3.41,7.75-1.96c0.84,0.46,1.44,0.48,2.25,0.03c1.61-0.9,1.63-0.86,1.63,0.95c0,1.29,0,2.57-0.01,3.86    c0,0.25,0.07,0.59-0.28,0.65c-0.27,0.05-0.38-0.23-0.5-0.42c-0.7-1.04-1.38-2.1-2.09-3.13c-1.38-2.02-4.92-2.38-6.72-0.69    c-1.09,1.02-1.1,2.76-0.03,3.8c0.71,0.69,1.61,1.04,2.51,1.36c1.34,0.47,2.68,0.99,4.04,1.39c5.02,1.46,4.62,7.01,2.11,9.46    c-2.12,2.07-5.61,2.68-8.38,1.16c-1.1-0.6-1.9-0.54-2.89,0.07c-1.09,0.67-1.28,0.52-1.3-0.74    C190.21,72.55,190.22,71.83,190.23,71.1C190.22,71.1,190.23,71.1,190.23,71.1z"></path>
		<path d="M182.39,74.49c-1.23,0-2.45,0.01-3.68,0c-0.28,0-0.68,0.06-0.71-0.35c-0.03-0.48,0.41-0.43,0.72-0.46    c1.54-0.15,1.54-0.15,0.88-1.59c-0.65-1.41-1.32-2.81-1.95-4.23c-0.22-0.49-0.52-0.71-1.06-0.7c-1.56,0.02-3.12,0.02-4.68,0    c-0.45,0-0.74,0.17-0.92,0.59c-0.72,1.7-1.46,3.4-2.2,5.09c-0.27,0.63-0.05,0.85,0.59,0.83c0.26-0.01,0.53,0.03,0.79,0.08    c0.17,0.03,0.3,0.15,0.28,0.35c-0.01,0.19-0.13,0.32-0.3,0.34c-1.49,0.12-2.98,0.1-4.47,0.01c-0.21-0.01-0.37-0.16-0.34-0.4    c0.02-0.19,0.17-0.27,0.33-0.31c0.06-0.02,0.13-0.05,0.19-0.04c1.71,0.36,2.07-0.86,2.57-2.05c2.21-5.26,4.47-10.51,6.72-15.76    c0.06-0.15,0.12-0.31,0.2-0.45c0.14-0.24,0.16-0.64,0.54-0.62c0.3,0.02,0.36,0.35,0.47,0.59c0.75,1.62,1.48,3.24,2.22,4.86    c1.88,4.11,3.77,8.22,5.61,12.35c0.35,0.78,0.78,1.17,1.64,1.05c0.19-0.03,0.4,0,0.59,0.03c0.23,0.03,0.49,0.08,0.5,0.38    c0.01,0.37-0.3,0.4-0.56,0.4C185.04,74.49,183.71,74.48,182.39,74.49C182.39,74.49,182.39,74.49,182.39,74.49z M174.33,60.25    c-0.87,2.04-1.62,3.82-2.38,5.6c-0.23,0.53,0.04,0.63,0.5,0.63c1.29-0.01,2.58-0.01,3.87,0c0.61,0.01,0.66-0.26,0.45-0.74    C175.99,64,175.22,62.26,174.33,60.25z"></path>
		<path d="M122.54,49.98c0.79-0.67,1.59-1.34,2.38-2.01c0.93-0.79,1.87-1.58,2.81-2.35c0.24-0.2,0.5-0.57,0.84-0.34    c0.27,0.18,0.11,0.54,0.05,0.83c-0.14,0.74-0.37,1.47-0.02,2.22c0.18,0.4-0.03,0.63-0.42,0.72c-1.82,0.42-3.65,0.84-5.48,1.25    C122.65,50.19,122.59,50.08,122.54,49.98z"></path>
	</g>
</g>
</svg>
