<?xml version="1.0" encoding="UTF-8"?>
<!-- Generator: Adobe Illustrator 26.0.1, SVG Export Plug-In . SVG Version: 6.00 Build 0)  -->
<svg xmlns="http://www.w3.org/2000/svg" xmlns:xlink="http://www.w3.org/1999/xlink" version="1.1" id="Layer_1" x="0px" y="0px" viewBox="0 0 250 120" style="enable-background:new 0 0 250 120;" xml:space="preserve">
<g>
	<g>
		<path d="M56.67,49.87c0,3.02,0.04,6.04-0.01,9.05c-0.06,3.77,0,7.55-0.08,11.32c-0.06,2.98-0.02,5.96-0.06,8.94    c-0.01,0.63,0,0.62-0.65,0.63c-1.71,0.03-3.42,0.02-5.13,0.09c-2.75,0.12-5.49,0.22-8.24,0.43c-2.46,0.18-4.88,0.03-7.2-0.9    c-2.82-1.14-4.83-3.17-6.29-5.77c-0.78-1.39-1.51-2.81-1.81-4.4c-0.21-1.09-0.22-2.2-0.24-3.3c-0.05-2.12-0.01-4.24,0.05-6.35    c0.07-2.23,0.9-4.18,1.97-6.09c2.21-3.92,5.61-6.06,9.98-6.81c1.51-0.26,3.03-0.39,4.56-0.47c1.15-0.06,2.31-0.16,3.46-0.22    c0.33-0.02,0.33-0.21,0.33-0.44c0-1.84,0-3.67,0-5.51c0-0.12,0.01-0.23,0-0.35c-0.03-0.31,0.09-0.45,0.42-0.43    c0.32,0.02,0.64,0,0.96,0c2.52,0,5.04,0.01,7.56-0.01c0.39,0,0.5,0.12,0.5,0.51c-0.01,3.35-0.01,6.7-0.01,10.05    C56.72,49.87,56.69,49.87,56.67,49.87z M47.3,60.85C47.31,60.85,47.31,60.85,47.3,60.85c0.01-2.26,0.01-4.52,0.01-6.78    c0-0.24,0.02-0.46-0.34-0.45c-2,0.03-3.98,0.15-5.91,0.72c-2.81,0.82-4.6,2.61-5.23,5.5c-0.42,1.91-0.42,3.85-0.26,5.78    c0.09,1.05,0.27,2.09,0.64,3.08c0.69,1.84,1.97,2.99,3.91,3.4c1.46,0.31,2.94,0.22,4.42,0.17c0.21-0.01,0.41-0.03,0.61-0.06    c1.17-0.2,1.7-0.79,1.92-2.13c0.17-1,0.22-2.02,0.23-3.03C47.32,64.98,47.3,62.92,47.3,60.85z"></path>
		<path d="M82.27,65.86c-3.45,0-6.89,0-10.34,0c-0.48,0-0.47,0-0.36,0.47c0.53,2.13,1.8,3.75,3.53,5.04c0.88,0.65,1.93,0.89,3,1.02    c3.62,0.43,7.09-0.25,10.48-1.44c1.24-0.43,2.41-1.02,3.62-1.54c0.41-0.18,0.45-0.16,0.44,0.27c-0.09,2.62-0.2,5.23-0.29,7.85    c-0.01,0.2-0.07,0.33-0.27,0.41c-2.16,0.79-4.29,1.67-6.58,2.03c-1.36,0.21-2.72,0.35-4.1,0.42c-1.36,0.07-2.72,0.09-4.08-0.01    c-3.63-0.28-7-1.25-9.85-3.64c-1.87-1.57-3.16-3.56-4.18-5.75c-0.63-1.36-0.88-2.77-0.93-4.25c-0.06-1.68-0.08-3.36-0.05-5.04    c0.03-1.38-0.03-2.79,0.34-4.13c0.72-2.61,1.96-4.97,3.75-7c2.59-2.94,5.92-4.49,9.77-4.98c3.4-0.43,6.65,0.07,9.68,1.68    c3.51,1.86,5.68,4.77,6.49,8.67c0.32,1.52,0.48,3.06,0.55,4.62c0.08,1.56,0.2,3.12,0.29,4.69c0.04,0.64,0.02,0.64-0.61,0.64    C89.14,65.86,85.7,65.86,82.27,65.86z M77.98,58.36c1.22,0,2.44,0.01,3.66,0c0.45,0,0.9-0.05,1.34-0.15    c0.6-0.13,0.77-0.39,0.65-0.99c-0.12-0.62-0.42-1.15-0.81-1.64c-1.05-1.3-2.47-1.97-4.05-2.36c-0.28-0.07-0.56-0.07-0.84-0.04    c-1.34,0.18-2.55,0.67-3.65,1.46c-0.89,0.64-1.56,1.49-2.13,2.41c-0.35,0.57-0.2,0.9,0.46,1.08c0.29,0.08,0.6,0.12,0.91,0.15    C75,58.44,76.49,58.35,77.98,58.36z"></path>
		<path d="M223.68,63.16c0,5.44,0,10.89,0,16.33c0,0.64,0,0.65-0.63,0.64c-2.61-0.03-5.22-0.12-7.83-0.08    c-2.12,0.04-4.23,0.23-6.33,0.48c-2.77,0.33-5.5,0-8.08-1.12c-2.07-0.89-3.43-2.52-4.47-4.46c-0.8-1.49-1.23-3.05-1.34-4.74    c-0.16-2.46-0.19-4.92-0.23-7.39c-0.07-3.85-0.16-7.7-0.11-11.55c0.02-1.33-0.01-2.67,0.11-4c0.06-0.59,0.26-0.84,0.87-0.94    c0.76-0.13,1.54-0.14,2.31-0.13c1.39,0.03,2.77,0.08,4.16,0.13c0.45,0.02,0.9,0.05,1.35,0.06c0.23,0.01,0.32,0.09,0.33,0.32    c0.01,0.41,0.04,0.82,0.05,1.23c0.04,2.18,0.05,4.36,0.11,6.55c0.07,2.59,0.11,5.18,0.16,7.78c0.05,2.46,0.14,4.93,0.14,7.39    c0,0.42,0.13,0.73,0.47,0.99c0.48,0.37,0.92,0.78,1.39,1.16c0.57,0.45,1.21,0.71,1.95,0.73c1.4,0.03,2.8-0.04,4.2-0.19    c1.4-0.15,1.97-0.78,2.21-2.33c0.26-1.67,0.23-3.35,0.26-5.03c0.1-6.07,0.02-12.15,0.04-18.22c0-0.59,0-0.6,0.58-0.6    c2.57,0,5.14,0,7.72,0c0.62,0,0.62,0,0.62,0.61C223.68,52.24,223.68,57.7,223.68,63.16z"></path>
		<path d="M99.86,63.09c0-5.46,0-10.91,0-16.37c0-0.61,0-0.62,0.62-0.6c3.08,0.09,6.17,0.19,9.25,0.14c0.8-0.01,1.59-0.04,2.38-0.15    c0.38-0.05,0.71-0.27,1.11-0.31c1.59-0.18,3.18-0.12,4.77-0.01c0.98,0.07,1.95,0.15,2.9,0.37c1.86,0.44,3.32,1.53,4.61,2.88    c1.52,1.59,2.55,3.43,2.84,5.65c0.14,1.11,0.22,2.22,0.24,3.34c0.15,7.11,0.07,14.23,0.09,21.34c0,0.35-0.11,0.47-0.47,0.48    c-1.91,0.04-3.83,0.08-5.74,0.17c-0.86,0.04-1.72,0.04-2.58,0.08c-0.28,0.01-0.36-0.09-0.36-0.35c0-1.09-0.03-2.18-0.04-3.27    c-0.06-3.7-0.07-7.39-0.12-11.09c-0.03-2.09-0.08-4.18-0.16-6.27c-0.03-0.81-0.1-1.61-0.21-2.41c-0.16-1.07-0.74-1.81-1.69-2.28    c-1.21-0.59-2.5-0.73-3.82-0.73c-1.61,0-3.04,0.58-4.46,1.23c-0.18,0.08-0.27,0.18-0.25,0.38c0.01,0.13,0,0.26,0,0.39    c0,7.92,0,15.85,0,23.77c0,0.63,0,0.63-0.64,0.63c-2.56,0-5.12,0-7.68,0c-0.6,0-0.6,0-0.6-0.59    C99.86,74.01,99.86,68.55,99.86,63.09z"></path>
		<path d="M162.21,72.3c0-0.9,0-1.8,0-2.7c0-0.41,0.03-0.43,0.41-0.27c1.83,0.75,3.69,1.42,5.63,1.88c2.33,0.55,4.69,0.89,7.1,0.86    c0.82-0.01,1.64-0.1,2.44-0.3c0.68-0.18,1.25-0.53,1.7-1.07c0.46-0.55,0.42-1.08-0.14-1.54c-0.56-0.45-1.22-0.72-1.88-0.95    c-1.83-0.66-3.74-1.03-5.63-1.48c-1.94-0.46-3.87-0.98-5.59-2.05c-1.72-1.08-3.19-2.41-3.95-4.35c-1.13-2.87-0.79-5.66,0.7-8.3    c1.94-3.45,5.01-5.31,8.84-6c1.59-0.28,3.19-0.39,4.8-0.38c3.38,0.03,6.59,0.76,9.7,2.07c1.01,0.43,1.29,1.15,1.37,2.09    c0.15,1.94,0.16,3.87,0.02,5.81c-0.01,0.09-0.02,0.18-0.05,0.26c-0.12,0.45-0.29,0.54-0.73,0.39c-0.89-0.3-1.77-0.61-2.68-0.86    c-2.44-0.66-4.91-1.11-7.43-1.28c-1.36-0.09-2.72-0.14-4.07,0.17c-0.21,0.05-0.42,0.12-0.62,0.21c-0.59,0.27-1,0.71-1,1.38    c0,0.7,0.43,1.17,1.05,1.44c0.84,0.37,1.74,0.55,2.62,0.78c2.32,0.6,4.7,1,6.98,1.78c1.16,0.4,2.28,0.88,3.32,1.53    c2.16,1.33,3.46,3.22,3.8,5.74c0.28,2.09,0.14,4.15-0.59,6.15c-1.06,2.91-3.18,4.76-6,5.88c-1.89,0.76-3.87,1.09-5.9,1.25    c-3.74,0.29-7.38-0.27-10.96-1.31c-0.59-0.17-1.16-0.42-1.74-0.64c-0.92-0.34-1.28-1.02-1.38-1.94    C162.2,75.15,162.22,73.72,162.21,72.3z"></path>
		<path d="M145.13,60.42c0,1.87-0.03,3.75,0.01,5.62c0.03,1.27,0.04,2.54,0.29,3.79c0.03,0.16,0.07,0.33,0.11,0.49    c0.35,1.21,1,1.72,2.26,1.75c1.39,0.03,2.77-0.17,4.14-0.34c0.89-0.11,1.78-0.24,2.65-0.47c0.41-0.1,0.61,0.06,0.7,0.49    c0.16,0.76,0.1,1.54,0.12,2.3c0.04,1.63,0.01,3.26,0.02,4.89c0,0.36-0.11,0.51-0.47,0.6c-2.55,0.59-5.11,1.08-7.73,1.03    c-1.94-0.04-3.84-0.31-5.67-0.98c-2.71-1-4.19-3.04-4.89-5.72c-0.37-1.39-0.46-2.83-0.54-4.27c-0.16-2.92-0.21-5.85-0.26-8.77    c-0.06-3.62-0.11-7.24-0.15-10.86c-0.03-2.39-0.03-4.78-0.08-7.16c-0.02-1-0.03-2-0.06-3c-0.01-0.36,0.09-0.5,0.47-0.49    c2.87,0.01,5.74,0.01,8.6,0c0.36,0,0.46,0.12,0.46,0.47c-0.01,1.98,0,3.96-0.01,5.93c0,0.38,0.12,0.47,0.49,0.47    c3.1-0.01,6.2-0.01,9.3-0.01c0.54,0,0.55,0,0.55,0.53c0,2.38,0,4.75,0,7.13c0,0.54-0.04,0.57-0.57,0.54    c-1.82-0.08-3.65-0.14-5.47-0.22c-1.23-0.05-2.46-0.1-3.7-0.15c-0.58-0.02-0.58-0.01-0.58,0.59    C145.12,56.54,145.12,58.48,145.13,60.42C145.12,60.42,145.13,60.42,145.13,60.42z"></path>
	</g>
</g>
</svg>
