<?xml version="1.0" encoding="UTF-8"?>
<!-- Generator: Adobe Illustrator 26.0.1, SVG Export Plug-In . SVG Version: 6.00 Build 0)  -->
<svg xmlns="http://www.w3.org/2000/svg" xmlns:xlink="http://www.w3.org/1999/xlink" version="1.1" id="Layer_1" x="0px" y="0px" viewBox="0 0 250 120" style="enable-background:new 0 0 250 120;" xml:space="preserve">
<g>
	<g>
		<path d="M221.15,73.79c-2.29,0-4.58,0-6.86,0c-0.78,0-0.78,0-0.78-0.77c0-6.54,0-13.08-0.01-19.61c0-0.59-0.06-1.17-0.22-1.74    c-0.18-0.65-0.62-1.06-1.28-1.13c-2.04-0.21-3.86,0.27-5.32,1.81c-0.38,0.4-0.55,0.82-0.55,1.39c0.02,6.38,0.01,12.76,0.01,19.13    c0,0.92,0,0.92-0.91,0.92c-2.04,0-4.07,0-6.11,0c-0.7,0-0.72-0.02-0.72-0.72c0-6.54,0-13.08,0-19.62c0-0.55-0.02-1.1-0.14-1.65    c-0.17-0.72-0.6-1.19-1.34-1.27c-2.07-0.22-3.9,0.28-5.36,1.84c-0.36,0.38-0.52,0.8-0.52,1.34c0.02,6.41,0.01,12.83,0.01,19.24    c0,0.82,0,0.83-0.83,0.83c-2.06,0-4.11-0.01-6.17,0.01c-0.54,0.01-0.7-0.16-0.7-0.71c0.02-6.52-0.04-13.04,0.04-19.56    c0.03-2.14-0.85-3.6-2.52-4.75c-0.39-0.27-0.79-0.52-1.19-0.78c0.12-0.21,0.29-0.22,0.44-0.26c1.73-0.51,3.46-1.02,5.19-1.54    c0.32-0.09,0.6-0.06,0.88,0.08c1.13,0.56,2.33,1.04,3.17,2.05c0.17,0.2,0.3,0.1,0.46,0.01c1.84-1.05,3.8-1.73,5.9-2.01    c2.46-0.32,4.88-0.19,7.23,0.69c0.57,0.21,1.11,0.51,1.56,0.92c0.27,0.24,0.49,0.25,0.81,0.1c1.76-0.81,3.58-1.44,5.51-1.7    c2.62-0.35,5.21-0.2,7.66,0.91c1.3,0.58,2.22,1.53,2.66,2.91C221.15,58.04,221.15,65.92,221.15,73.79z"></path>
		<path d="M29.17,74.33c-0.01-0.23-0.04-0.46-0.04-0.69c0-8.96,0-17.91,0-26.87c0-0.8,0-0.8,0.79-0.8c3.52,0,7.04-0.02,10.56,0.01    c2.25,0.02,4.45,0.34,6.55,1.17c3.25,1.27,5.42,3.59,6.43,6.91c1.16,3.82,1.18,7.7,0.17,11.54c-1.21,4.6-4.33,7.22-8.91,8.24    c-1.27,0.28-2.57,0.37-3.86,0.5C36.97,74.33,33.07,74.33,29.17,74.33z M37.01,60.16c0,3.04,0.01,6.09-0.01,9.13    c0,0.46,0.13,0.64,0.61,0.62c0.68-0.03,1.36-0.01,2.04-0.01c2.19,0.01,3.85-0.89,4.88-2.86c0.31-0.6,0.54-1.24,0.69-1.9    c0.58-2.45,0.54-4.95,0.4-7.43c-0.08-1.47-0.31-2.95-0.98-4.29c-0.8-1.61-1.95-2.8-3.88-2.96c-1-0.08-2-0.03-3-0.05    c-0.75-0.01-0.75,0-0.75,0.73C37.01,54.15,37.01,57.16,37.01,60.16z"></path>
		<path d="M159.27,74.33c-1.29-0.2-2.57-0.41-3.8-0.88c-3.5-1.33-5.87-3.77-7.03-7.29c-1.33-4.03-1.33-8.11,0.16-12.1    c1.63-4.37,4.94-6.77,9.47-7.55c2.61-0.45,5.23-0.37,7.79,0.39c3.81,1.13,6.45,3.56,7.77,7.28c1.42,4,1.44,8.09,0.06,12.1    c-1.55,4.51-4.87,7.01-9.52,7.85c-0.38,0.07-0.77,0.13-1.16,0.19C161.77,74.33,160.52,74.33,159.27,74.33z M166.21,60.19    c0.03-1.27-0.04-2.68-0.24-4.07c-0.07-0.51-0.18-1.02-0.31-1.52c-0.27-1.05-0.66-2.05-1.54-2.75c-2.34-1.87-6.15-0.88-7.28,1.87    c-0.2,0.48-0.34,0.97-0.45,1.48c-0.51,2.37-0.49,4.78-0.39,7.18c0.06,1.44,0.24,2.87,0.72,4.25c0.62,1.76,1.78,2.86,3.69,3.03    c2.57,0.23,4.3-0.57,5.1-3.1c0.1-0.31,0.19-0.61,0.25-0.93C166.16,63.88,166.23,62.11,166.21,60.19z"></path>
		<path d="M70.79,74.33c-1.02-0.17-2.05-0.28-3.05-0.55c-3.77-1.01-6.17-3.4-7.17-7.14c-1.05-3.92-1.09-7.9-0.13-11.83    c1.08-4.43,3.9-7.19,8.41-8.12c3.12-0.64,6.25-0.67,9.31,0.36c3.84,1.3,6.22,4.52,6.38,8.56c0.03,0.79-0.12,1.56-0.24,2.33    c-0.04,0.28-0.21,0.47-0.45,0.62c-2.83,1.73-5.9,2.77-9.16,3.28c-2.03,0.32-4.08,0.47-6.13,0.43C68.15,62.27,68,62.4,68,62.8    c0,1.36,0.08,2.7,0.46,4.02c0.56,1.93,1.88,3,3.89,3.22c1.94,0.21,3.85,0.04,5.71-0.54c0.32-0.1,0.66-0.21,0.92-0.43    c0.36-0.31,0.68-0.24,1.06-0.04c1.09,0.57,2.2,1.12,3.31,1.65c0.42,0.2,0.39,0.36,0.04,0.61c-2.17,1.53-4.6,2.43-7.2,2.87    c-0.4,0.07-0.81,0.12-1.21,0.19C73.57,74.33,72.18,74.33,70.79,74.33z M69.44,58.7c2.54-0.01,4.17-0.46,6.32-1.41    c1.1-0.49,1.49-1.28,1.63-2.34c0.04-0.32,0.03-0.64,0.01-0.96c-0.1-1.93-1.15-3.19-2.98-3.53c-0.47-0.09-0.96-0.08-1.44-0.07    c-2.35,0.04-3.89,1.23-4.53,3.5c-0.34,1.19-0.44,2.41-0.45,3.65c-0.01,1.36-0.06,1.18,1.12,1.16C69.23,58.7,69.34,58.7,69.44,58.7    z"></path>
		<path d="M131.81,74.33c-1.13-0.18-2.26-0.32-3.36-0.65c-5.01-1.48-7.68-4.96-8.46-9.99c-0.42-2.73-0.38-5.46,0.29-8.17    c1.1-4.48,3.87-7.4,8.34-8.59c3.81-1.02,7.63-0.98,11.38,0.4c1.28,0.47,2.47,1.12,3.57,1.93c0.45,0.33,0.45,0.4-0.02,0.64    c-1.21,0.61-2.43,1.21-3.64,1.82c-0.18,0.09-0.35,0.19-0.54,0.03c-0.81-0.66-1.8-0.84-2.8-0.96c-1.21-0.14-2.42-0.26-3.63-0.05    c-2.02,0.34-3.25,1.57-3.94,3.44c-0.49,1.35-0.7,2.77-0.76,4.19c-0.11,2.42-0.12,4.84,0.5,7.22c0.17,0.68,0.42,1.32,0.76,1.93    c0.94,1.68,2.45,2.39,4.29,2.47c1.45,0.06,2.89-0.05,4.29-0.47c0.43-0.13,0.85-0.3,1.19-0.6c0.23-0.2,0.43-0.17,0.68-0.05    c1.2,0.6,2.4,1.19,3.59,1.8c0.47,0.24,0.48,0.32,0.04,0.64c-1.99,1.5-4.24,2.41-6.69,2.82c-0.37,0.06-0.74,0.12-1.11,0.18    C134.46,74.33,133.13,74.33,131.81,74.33z"></path>
		<path d="M91.87,46.85c1.04,0,2.07,0.03,3.11-0.01c0.53-0.02,0.79,0.16,0.97,0.67c1.13,3.05,2.94,5.64,5.35,7.82    c0.38,0.34,0.6,0.27,0.93-0.03c2.39-2.17,4.23-4.73,5.4-7.74c0.22-0.57,0.51-0.74,1.1-0.73c2.11,0.04,4.22,0.01,6.33,0.01    c0.7,0,0.73,0.06,0.44,0.68c-1.46,3.1-3.52,5.77-5.8,8.3c-1.31,1.44-2.69,2.81-4.18,4.06c-0.38,0.32-0.18,0.46,0.08,0.68    c2.72,2.23,5.19,4.69,7.28,7.51c1.06,1.42,1.96,2.93,2.61,4.59c0.07,0.18,0.13,0.37,0.2,0.55c0.17,0.41,0.04,0.58-0.42,0.58    c-1.2-0.02-2.39-0.01-3.59-0.01c-1,0-2-0.01-3,0c-0.34,0-0.56-0.09-0.7-0.44c-0.99-2.55-2.61-4.69-4.38-6.73    c-0.49-0.56-1.03-1.09-1.53-1.64c-0.22-0.24-0.39-0.24-0.62-0.01c-2.38,2.49-4.52,5.15-5.82,8.38c-0.13,0.31-0.3,0.45-0.63,0.44    c-2.22-0.01-4.43,0-6.65-0.01c-0.54,0-0.59-0.08-0.42-0.61c0.76-2.32,2.07-4.33,3.58-6.22c1.89-2.36,4.04-4.48,6.39-6.38    c0.34-0.28,0.41-0.4,0.03-0.74c-3.46-3.05-6.54-6.42-8.86-10.43c-0.38-0.66-0.69-1.37-1.04-2.05c-0.19-0.37-0.06-0.52,0.34-0.52    C89.55,46.85,90.71,46.85,91.87,46.85C91.87,46.85,91.87,46.85,91.87,46.85z"></path>
	</g>
</g>
</svg>
