<?xml version="1.0" encoding="UTF-8"?>
<!-- Generator: Adobe Illustrator 26.0.1, SVG Export Plug-In . SVG Version: 6.00 Build 0)  -->
<svg xmlns="http://www.w3.org/2000/svg" xmlns:xlink="http://www.w3.org/1999/xlink" version="1.1" id="Layer_1" x="0px" y="0px" viewBox="0 0 250 120" style="enable-background:new 0 0 250 120;" xml:space="preserve">
<g>
	<g>
		<path d="M60.52,50.26c-0.22,0.82,0.17,1.24,0.9,1.54c0.55,0.22,1.05,0.56,1.58,0.83c0.23,0.12,0.33,0.27,0.29,0.53    c-0.66,4.29-2.04,8.32-4.32,12.03c-2.03,3.3-4.59,6.12-7.63,8.51c-2.02,1.59-4.18,2.95-6.46,4.12c-0.22,0.11-0.4,0.13-0.63,0.01    c-2.94-1.49-5.66-3.3-8.11-5.49c-4.63-4.15-7.82-9.2-9.47-15.21c-0.36-1.32-0.62-2.65-0.85-4c-0.04-0.26,0.08-0.39,0.28-0.5    c0.72-0.38,1.42-0.77,2.14-1.14c0.26-0.13,0.37-0.3,0.36-0.59c-0.02-0.44,0.01-0.88-0.01-1.31c-0.01-0.3,0.11-0.46,0.36-0.6    c0.7-0.37,1.4-0.76,2.11-1.13c0.26-0.13,0.37-0.3,0.36-0.59c-0.02-0.44,0-0.88-0.01-1.31c-0.01-0.29,0.1-0.45,0.37-0.58    c2.98-1.39,6.11-2.36,9.33-3c1.05-0.21,2.11-0.39,3.17-0.54c0.7-0.1,1.4,0.11,2.08,0.23c3.45,0.58,6.81,1.48,10.03,2.88    c0.13,0.06,0.27,0.12,0.4,0.18c1.06,0.49,0.91,0.2,0.92,1.45c0.01,1.11,0,1.1,0.98,1.61c0.46,0.24,0.9,0.51,1.37,0.73    c0.37,0.17,0.53,0.41,0.47,0.81C60.5,49.91,60.52,50.08,60.52,50.26z M45.94,59.97c0,4.26,0,8.51,0,12.77    c0,0.2-0.11,0.49,0.08,0.59c0.17,0.08,0.38-0.14,0.56-0.25c3.82-2.32,6.89-5.41,9.42-9.06c0.96-1.38,1.78-2.83,2.19-4.47    c0.38-1.54,0.03-2.56-1.13-3.35c-0.22-0.15-0.58-0.19-0.63-0.44c-0.05-0.27,0.28-0.45,0.43-0.67c0.91-1.35,1.01-2.93-0.12-4.25    c-0.58-0.68-1.26-1.21-2.01-1.67c-2.54-1.57-5.33-2.39-8.29-2.66c-0.49-0.04-0.51-0.01-0.51,0.49    C45.94,51.32,45.94,55.65,45.94,59.97z M43.17,73.34c0-0.21,0-0.31,0-0.4c0-8.66,0-17.31,0-25.97c0-0.07,0-0.13,0-0.2    c0.01-0.21-0.1-0.29-0.3-0.26c-0.65,0.12-1.3,0.25-1.95,0.35c-0.38,0.06-0.49,0.23-0.48,0.61c0.04,2.48,0,4.96,0.05,7.44    c0.06,2.85,0.03,5.7,0.03,8.55c0,0.22,0.14,0.59-0.11,0.63c-0.22,0.04-0.25-0.35-0.33-0.57c-1.76-4.82-2.63-9.82-2.95-14.92    c-0.02-0.3-0.11-0.39-0.38-0.26c-0.73,0.36-1.44,0.74-2.13,1.16c-0.17,0.1-0.23,0.23-0.21,0.43c0.18,1.67,0.35,3.33,0.61,4.99    c0.44,2.76,1.11,5.46,2.03,8.11c0.26,0.76,0.39,0.58-0.39,1.05c-0.27,0.17-0.43,0.14-0.61-0.13c-0.43-0.65-0.85-1.31-1.23-1.99    c-1.67-2.98-2.72-6.2-3.49-9.51c-0.09-0.4-0.2-0.31-0.41-0.12c-0.53,0.48-1,1.03-1.5,1.54c-0.22,0.22-0.26,0.42-0.19,0.71    c0.63,2.46,1.44,4.85,2.55,7.13c1.03,2.11,2.31,4.05,3.83,5.83c0.23,0.27,0.42,0.32,0.73,0.11c0.56-0.37,1.17-0.69,1.73-1.05    c0.29-0.19,0.42-0.12,0.56,0.17c0.63,1.32,1.4,2.56,2.24,3.75C41.56,71.48,42.28,72.41,43.17,73.34z"></path>
		<path d="M79.87,52.99c1.27-3.1,2.53-6.18,3.8-9.26c0.04,0,0.08,0,0.12,0c1.26,3.08,2.52,6.17,3.82,9.35    c0.28-0.72,0.53-1.34,0.77-1.96c0.86-2.2,1.72-4.4,2.56-6.6c0.13-0.34,0.31-0.47,0.67-0.45c0.64,0.03,1.27,0.01,1.91,0.01    c0.47,0,0.49,0.03,0.31,0.47c-0.98,2.41-1.96,4.81-2.94,7.22c-0.97,2.38-1.94,4.76-2.91,7.14c-0.06,0.14-0.06,0.37-0.24,0.37    c-0.14,0-0.16-0.22-0.21-0.35c-1.22-2.92-2.44-5.85-3.66-8.77c-0.05-0.13-0.08-0.28-0.25-0.41c-1.33,3.2-2.66,6.39-3.98,9.57    c-0.21-0.09-0.22-0.25-0.27-0.38c-1.95-4.77-3.9-9.55-5.85-14.32c-0.22-0.54-0.22-0.55,0.35-0.55c0.68,0,1.36,0.02,2.03-0.01    c0.36-0.02,0.48,0.16,0.6,0.44c1.05,2.69,2.1,5.38,3.15,8.08C79.69,52.7,79.71,52.85,79.87,52.99z"></path>
		<path d="M135.59,71.07c0,4.22-3.34,7.57-7.54,7.57c-4.18,0-7.5-3.4-7.51-7.61c-0.01-3.91,3.05-7.6,7.53-7.6    C132.58,63.43,135.66,67.18,135.59,71.07z M132.78,71.46c0.04-0.91-0.07-1.67-0.36-2.42c-1.13-2.9-4.6-3.92-7.13-2.1    c-1.72,1.25-2.43,3.75-1.67,5.91c0.98,2.77,4.11,4.04,6.63,2.65C131.87,74.61,132.65,73.17,132.78,71.46z"></path>
		<path d="M195.37,51.41c0-4.22,3.35-7.59,7.53-7.59c4.31,0,7.57,3.62,7.52,7.65c-0.05,4.2-3.4,7.63-7.56,7.58    C198.31,59,195.27,55.2,195.37,51.41z M203.01,56.43c0.69,0.02,1.46-0.17,2.16-0.58c2.25-1.3,3.11-4.27,1.94-6.72    c-1.44-3.02-5.32-3.65-7.61-1.21c-1.1,1.17-1.45,2.6-1.3,4.19C198.43,54.54,200.45,56.42,203.01,56.43z"></path>
		<path d="M125.62,49.6c0,0.72,0,1.41,0,2.1c0,2.2-0.01,4.4,0.01,6.6c0,0.4-0.12,0.54-0.52,0.52c-0.57-0.03-1.14,0-1.71-0.01    c-0.5,0-0.52-0.02-0.52-0.51c0-2.04,0-4.08,0-6.12c0-2.72,0-5.44,0-8.15c0-0.14-0.07-0.33,0.08-0.4c0.16-0.08,0.25,0.11,0.35,0.21    c2.75,2.65,5.5,5.3,8.25,7.95c0.52,0.51,1.06,1,1.6,1.52c0.1-0.15,0.06-0.3,0.06-0.43c0-2.74,0-5.49,0-8.23    c0-0.58,0-0.58,0.6-0.58c0.56,0,1.12,0.02,1.67-0.01c0.37-0.02,0.48,0.13,0.48,0.48c-0.01,2.04-0.01,4.08-0.01,6.12    c0,2.73,0,5.46,0,8.19c0,0.14,0.08,0.34-0.08,0.4c-0.15,0.06-0.24-0.13-0.34-0.23c-3.19-3.06-6.37-6.12-9.56-9.18    C125.89,49.76,125.82,49.64,125.62,49.6z"></path>
		<path d="M177.58,51.01c0.32,0.15,0.6,0.25,0.85,0.39c1.24,0.7,1.94,1.75,1.94,3.2c0,1.5-0.63,2.66-1.93,3.43    c-0.95,0.56-2.01,0.76-3.09,0.78c-1.57,0.03-3.13,0-4.7,0.02c-0.35,0-0.45-0.13-0.45-0.47c0.01-4.61,0.01-9.23,0-13.84    c0-0.34,0.1-0.46,0.45-0.46c1.42,0.02,2.84-0.02,4.26,0.02c1.11,0.03,2.19,0.26,3.12,0.93c1.99,1.43,1.93,4.45-0.12,5.78    C177.81,50.85,177.73,50.91,177.58,51.01z M174.44,52.38c-0.46,0-0.82,0-1.18,0c-0.21,0-0.33,0.07-0.33,0.3c0,1.17,0,2.33,0,3.5    c0,0.19,0.07,0.3,0.28,0.3c0.83-0.02,1.67,0.07,2.5-0.08c1.06-0.19,1.78-0.95,1.81-1.92c0.03-1.01-0.59-1.74-1.68-2.01    C175.34,52.34,174.84,52.4,174.44,52.38z M172.93,48.32c0,0.53,0,1.06,0,1.59c0,0.18,0.01,0.36,0.26,0.36    c0.69,0,1.38,0.06,2.06-0.12c0.65-0.17,1.17-0.51,1.38-1.19c0.36-1.17-0.25-2.19-1.45-2.46c-0.62-0.14-1.24-0.06-1.86-0.09    c-0.3-0.01-0.39,0.12-0.39,0.4C172.94,47.31,172.93,47.82,172.93,48.32z"></path>
		<path d="M75.13,71.06c0-2.29,0.01-4.59-0.01-6.88c0-0.4,0.11-0.54,0.52-0.53c1.61,0.05,3.21-0.04,4.82,0.06    c3.46,0.21,6.38,3.04,6.76,6.48c0.51,4.59-3.08,8.22-7.43,8.22c-1.37,0-2.74,0-4.1,0c-0.56,0-0.56,0-0.56-0.54    C75.13,75.59,75.13,73.33,75.13,71.06z M77.95,71.01c0,1.48,0,2.97,0,4.45c0,0.11,0,0.21,0,0.32c0,0.17,0.08,0.28,0.26,0.28    c0.72,0,1.44,0.08,2.15-0.05c2.3-0.41,3.82-2.07,4.09-4.41c0.25-2.27-1-4.42-3.06-5.24c-0.94-0.38-1.92-0.37-2.9-0.36    c-0.53,0-0.54,0-0.54,0.52C77.95,68.01,77.95,69.51,77.95,71.01z"></path>
		<path d="M109.18,51.4c0-2.27,0-4.53,0-6.8c0-0.53,0.01-0.54,0.53-0.54c1.35,0,2.71-0.02,4.06,0.01c1.22,0.03,2.38,0.34,3.42,1.03    c2.48,1.67,2.46,5.93-0.58,7.35c-0.48,0.23-0.48,0.24-0.15,0.67c1.29,1.73,2.59,3.46,3.88,5.2c0.09,0.12,0.28,0.24,0.19,0.4    c-0.09,0.15-0.29,0.08-0.44,0.08c-0.73,0.01-1.46-0.01-2.19,0.01c-0.31,0.01-0.52-0.09-0.7-0.34c-1.19-1.63-2.4-3.24-3.59-4.86    c-0.3-0.41-0.96-0.61-1.43-0.44c-0.21,0.08-0.16,0.25-0.16,0.4c0,1.52,0,3.05,0,4.57c0,0.66,0,0.66-0.68,0.67    c-0.54,0-1.09-0.02-1.63,0.01c-0.38,0.02-0.55-0.12-0.5-0.5c0-0.01,0-0.03,0-0.04C109.18,55.99,109.18,53.7,109.18,51.4z     M111.99,48.63c0,0.65,0.01,1.3,0,1.95c0,0.24,0.09,0.33,0.33,0.33c0.61,0,1.22,0.01,1.83-0.08c1.17-0.18,1.92-0.96,1.95-2.02    c0.04-1.26-0.58-2.05-1.82-2.32c-0.63-0.14-1.27-0.05-1.91-0.08c-0.3-0.01-0.39,0.12-0.39,0.4    C112,47.41,111.99,48.02,111.99,48.63z"></path>
		<path d="M164.89,71.02c0-2.25,0-4.51,0-6.76c0-0.59,0.02-0.61,0.6-0.6c1.47,0.02,2.95-0.07,4.42,0.06    c1.5,0.14,2.86,0.61,3.85,1.81c1.5,1.81,1.3,5.24-1.44,6.54c-0.48,0.23-0.48,0.24-0.15,0.68c1.29,1.73,2.59,3.46,3.88,5.2    c0.09,0.12,0.29,0.24,0.2,0.4c-0.08,0.14-0.29,0.06-0.45,0.06c-0.76,0.01-1.51-0.01-2.27,0.01c-0.28,0.01-0.47-0.09-0.63-0.32    c-1.21-1.65-2.43-3.28-3.65-4.93c-0.26-0.36-1.01-0.57-1.41-0.4c-0.2,0.09-0.14,0.27-0.14,0.42c0,1.56,0,3.13,0,4.69    c0,0.52,0,0.52-0.53,0.53c-0.54,0-1.09,0-1.63,0c-0.64,0-0.64,0-0.64-0.66C164.89,75.5,164.89,73.26,164.89,71.02z M167.7,68.23    c0,0.64,0.01,1.27,0,1.91c0,0.25,0.08,0.36,0.34,0.36c0.5-0.01,1.01,0.01,1.51-0.02c1.31-0.09,2.2-0.9,2.26-2.02    c0.07-1.36-0.62-2.16-2.05-2.4c-0.57-0.1-1.14-0.03-1.71-0.06c-0.28-0.02-0.37,0.11-0.36,0.37    C167.71,66.98,167.7,67.61,167.7,68.23z"></path>
		<path d="M183.12,51.4c0-2.27,0-4.53,0-6.8c0-0.53,0.01-0.54,0.53-0.54c1.35,0,2.71-0.03,4.06,0.01c1.28,0.04,2.48,0.37,3.55,1.13    c2.23,1.59,2.35,5.73-0.62,7.2c-0.57,0.28-0.56,0.29-0.18,0.81c1.29,1.72,2.57,3.44,3.86,5.16c0.08,0.1,0.22,0.2,0.15,0.34    c-0.07,0.14-0.23,0.09-0.36,0.09c-0.76,0-1.51-0.01-2.27,0.01c-0.35,0.01-0.56-0.12-0.76-0.39c-1.21-1.65-2.43-3.29-3.64-4.93    c-0.22-0.3-1.04-0.49-1.37-0.31c-0.18,0.1-0.13,0.28-0.13,0.43c0,1.55,0,3.1,0,4.65c0,0.53-0.01,0.54-0.53,0.54    c-0.6,0-1.2-0.02-1.79,0.01c-0.38,0.01-0.55-0.12-0.5-0.5c0-0.01,0-0.03,0-0.04C183.12,55.99,183.12,53.7,183.12,51.4z     M185.94,48.62c0,0.65,0,1.3,0,1.95c0,0.23,0.07,0.34,0.32,0.34c0.61,0,1.22,0.01,1.82-0.08c1.13-0.17,1.92-0.98,1.96-2.01    c0.05-1.25-0.58-2.05-1.81-2.33c-0.63-0.14-1.27-0.05-1.9-0.08c-0.29-0.01-0.4,0.11-0.39,0.4    C185.95,47.4,185.94,48.01,185.94,48.62z"></path>
		<path d="M151.63,51.44c0-2.28,0-4.56,0-6.84c0-0.53,0-0.54,0.53-0.54c1.35,0,2.71-0.03,4.06,0.01c1.35,0.04,2.63,0.37,3.69,1.27    c2.34,1.98,1.89,5.73-0.85,7.1c-0.53,0.26-0.52,0.21-0.17,0.68c1.3,1.74,2.6,3.48,3.9,5.23c0.08,0.11,0.25,0.22,0.18,0.37    c-0.07,0.16-0.26,0.09-0.4,0.09c-0.76,0.01-1.51-0.01-2.27,0.01c-0.31,0.01-0.51-0.1-0.7-0.35c-1.21-1.66-2.44-3.31-3.67-4.96    c-0.23-0.31-1.04-0.49-1.36-0.32c-0.18,0.1-0.13,0.28-0.13,0.43c0,1.54,0,3.07,0,4.61c0,0.58-0.01,0.58-0.57,0.58    c-0.6,0-1.2-0.01-1.79,0.01c-0.35,0.01-0.5-0.12-0.45-0.46c0-0.01,0-0.03,0-0.04C151.63,56.03,151.63,53.73,151.63,51.44z     M154.45,48.66c0,0.62,0.01,1.25,0,1.87c0,0.27,0.09,0.38,0.37,0.38c0.57-0.01,1.14,0,1.71-0.08c1.18-0.17,1.98-0.96,2.04-2.04    c0.06-1.18-0.59-2.01-1.81-2.3c-0.63-0.15-1.27-0.06-1.9-0.09c-0.29-0.01-0.4,0.11-0.4,0.4    C154.46,47.42,154.45,48.04,154.45,48.66z"></path>
		<path d="M152.53,71.03c0-2.27,0-4.53,0-6.8c0-0.56,0.02-0.58,0.59-0.58c2.67,0,5.34,0,8,0c0.56,0,0.57,0.02,0.58,0.59    c0,0.41-0.02,0.82,0.01,1.23c0.02,0.39-0.1,0.53-0.52,0.53c-1.81-0.02-3.61,0-5.42-0.02c-0.42-0.01-0.52,0.13-0.51,0.52    c0.03,0.93,0.02,1.86,0,2.78c-0.01,0.31,0.11,0.41,0.42,0.41c1.65-0.01,3.29-0.01,4.94,0c0.53,0,0.54,0.01,0.54,0.53    c0,0.46-0.02,0.93,0.01,1.39c0.02,0.37-0.12,0.48-0.48,0.48c-1.61-0.01-3.21-0.01-4.82,0c-0.6,0-0.6,0-0.6,0.58    c0,0.98,0.01,1.96-0.01,2.94c-0.01,0.35,0.12,0.45,0.46,0.45c1.82-0.01,3.64-0.01,5.46-0.01c0.52,0,0.53,0.01,0.54,0.54    c0,0.45-0.02,0.9,0.01,1.35c0.02,0.34-0.1,0.46-0.45,0.46c-1.47-0.02-2.95-0.01-4.42-0.01c-1.27,0-2.55-0.01-3.82,0.01    c-0.39,0.01-0.5-0.13-0.5-0.5C152.54,75.62,152.53,73.33,152.53,71.03z"></path>
		<path d="M139.44,51.45c0-2.29,0.01-4.59-0.01-6.88c0-0.41,0.13-0.52,0.52-0.51c2.69,0.01,5.39,0.01,8.08,0.01    c0.52,0,0.52,0.01,0.53,0.54c0,0.45-0.02,0.9,0.01,1.35c0.02,0.35-0.13,0.46-0.47,0.46c-1.78-0.01-3.56-0.01-5.34,0    c-0.58,0-0.58,0-0.58,0.56c0,0.87,0.02,1.75-0.01,2.62c-0.01,0.39,0.1,0.53,0.51,0.52c1.63-0.02,3.27,0,4.9-0.02    c0.36,0,0.51,0.11,0.49,0.47c-0.02,0.48-0.02,0.95,0,1.43c0.01,0.34-0.11,0.46-0.46,0.46c-1.65-0.01-3.29,0-4.94-0.01    c-0.38,0-0.51,0.12-0.5,0.5c0.02,1.02,0.02,2.04,0,3.06c-0.01,0.37,0.13,0.47,0.49,0.47c1.75-0.02,3.5-0.01,5.26-0.01    c0.66,0,0.66,0,0.66,0.68c0,0.4-0.02,0.8,0.01,1.19c0.03,0.38-0.13,0.48-0.48,0.48c-1.86-0.01-3.72-0.01-5.58-0.01    c-0.86,0-1.73-0.01-2.59,0.01c-0.37,0.01-0.51-0.11-0.51-0.5C139.44,56.03,139.44,53.74,139.44,51.45z"></path>
		<path d="M105.89,58.82c-0.28,0-0.56-0.03-0.84,0.01c-0.44,0.05-0.67-0.12-0.84-0.53c-0.33-0.78-0.72-1.53-1.07-2.31    c-0.12-0.25-0.27-0.35-0.55-0.34c-1.81,0.01-3.61,0.01-5.42,0c-0.31,0-0.45,0.12-0.57,0.38c-0.37,0.82-0.77,1.63-1.14,2.45    c-0.11,0.25-0.27,0.36-0.55,0.35c-0.69-0.01-1.38,0-2.07,0c-0.48,0-0.5-0.04-0.29-0.46c1.05-2.13,2.1-4.26,3.14-6.39    c1.31-2.68,2.63-5.36,3.94-8.03c0.06-0.12,0.08-0.33,0.25-0.33c0.16,0,0.18,0.21,0.24,0.33c2.36,4.79,4.71,9.59,7.07,14.39    c0.22,0.45,0.19,0.49-0.3,0.49C106.56,58.82,106.23,58.82,105.89,58.82z M99.88,49.09c-0.68,1.44-1.31,2.78-1.94,4.12    c-0.13,0.28,0.08,0.24,0.23,0.24c1.13,0,2.26,0,3.38,0c0.32,0,0.36-0.1,0.23-0.37c-0.37-0.75-0.71-1.51-1.07-2.26    C100.45,50.28,100.18,49.74,99.88,49.09z"></path>
		<path d="M104.43,66.29c0,0.33,0.01,0.66,0,0.99c0,0.13,0.06,0.3-0.07,0.37c-0.14,0.07-0.23-0.1-0.32-0.18    c-0.78-0.7-1.65-1.25-2.68-1.5c-0.6-0.15-1.2-0.19-1.81-0.04c-1,0.25-1.54,1.14-1.23,2.01c0.17,0.47,0.55,0.75,0.97,0.96    c0.89,0.44,1.8,0.86,2.7,1.28c0.45,0.21,0.87,0.46,1.29,0.7c2.82,1.64,2.29,5.65-0.23,7.01c-2.07,1.11-4.17,0.99-6.25,0.09    c-1.39-0.6-1.38-0.64-1.38-2.15c0-0.33,0-0.66,0-0.99c0-0.13-0.04-0.3,0.09-0.37c0.14-0.08,0.23,0.08,0.33,0.15    c0.88,0.65,1.81,1.21,2.89,1.48c0.85,0.21,1.7,0.27,2.55-0.03c0.64-0.23,1.1-0.63,1.21-1.35c0.11-0.76-0.21-1.32-0.85-1.7    c-0.89-0.53-1.85-0.92-2.78-1.38c-0.49-0.24-0.97-0.48-1.44-0.77c-2.65-1.6-2.2-5.08-0.11-6.52c1.91-1.32,5.2-1.16,6.94,0.38    c0.14,0.13,0.21,0.26,0.2,0.45C104.42,65.54,104.43,65.92,104.43,66.29z"></path>
		<path d="M221.17,46.67c0,0.37,0,0.74,0,1.11c0,0.09,0.03,0.21-0.06,0.26c-0.12,0.06-0.19-0.07-0.26-0.13    c-0.65-0.58-1.35-1.07-2.17-1.38c-0.8-0.3-1.62-0.41-2.46-0.19c-0.71,0.18-1.17,0.63-1.25,1.38c-0.07,0.69,0.32,1.13,0.86,1.45    c0.83,0.49,1.74,0.85,2.62,1.26c0.6,0.28,1.18,0.59,1.74,0.95c2.46,1.57,2.08,5.13,0.07,6.56c-1.7,1.21-3.59,1.33-5.55,0.84    c-0.79-0.2-1.52-0.53-2.21-0.98c-0.22-0.14-0.33-0.31-0.32-0.58c0.02-0.69,0-1.38,0.01-2.07c0-0.1-0.04-0.24,0.05-0.3    c0.12-0.08,0.22,0.05,0.31,0.12c0.92,0.7,1.9,1.26,3.03,1.53c0.71,0.17,1.42,0.2,2.13,0.04c1.02-0.23,1.56-0.92,1.51-1.89    c-0.03-0.63-0.42-1.02-0.93-1.3c-0.71-0.38-1.45-0.73-2.17-1.08c-0.64-0.31-1.29-0.62-1.91-0.98c-2.83-1.65-2.31-5.49,0.3-6.85    c1.91-1,4.68-0.75,6.37,0.59c0.2,0.16,0.32,0.34,0.3,0.61C221.15,45.98,221.17,46.33,221.17,46.67z"></path>
		<path d="M118.51,66.06c0,0.41,0,0.82,0,1.23c0,0.1,0.03,0.24-0.1,0.28c-0.1,0.03-0.16-0.08-0.23-0.14    c-1.49-1.33-3.22-1.62-5.09-1.04c-2.18,0.69-3.55,3-3.2,5.26c0.36,2.38,1.79,3.9,4.12,4.26c1.53,0.24,2.92-0.16,4.11-1.2    c0.09-0.08,0.16-0.23,0.28-0.18c0.15,0.05,0.1,0.23,0.1,0.35c0,0.76-0.01,1.51,0.01,2.27c0.01,0.36-0.15,0.55-0.45,0.7    c-2.65,1.36-6.07,0.94-8.32-1.01c-1.77-1.53-2.7-3.48-2.69-5.8c0.02-4.37,3.4-7.33,6.98-7.59c1.37-0.1,2.66,0.14,3.91,0.7    c0.41,0.18,0.64,0.42,0.58,0.9C118.47,65.39,118.51,65.73,118.51,66.06z"></path>
		<path d="M143.36,73.4c0.49-1.07,0.96-2.07,1.42-3.08c0.96-2.08,1.92-4.16,2.87-6.25c0.13-0.29,0.3-0.43,0.63-0.42    c0.69,0.02,1.38,0,2.07,0.01c0.42,0,0.45,0.05,0.26,0.43c-0.93,1.9-1.87,3.81-2.81,5.71c-1.43,2.92-2.85,5.83-4.28,8.75    c-0.06,0.13-0.09,0.32-0.24,0.34c-0.17,0.01-0.19-0.19-0.25-0.31c-1.82-3.71-3.64-7.42-5.46-11.14c-0.54-1.11-1.09-2.21-1.63-3.32    c-0.2-0.4-0.17-0.45,0.28-0.45c0.69-0.01,1.38,0.02,2.07-0.01c0.39-0.02,0.59,0.13,0.75,0.48c1.36,2.96,2.74,5.92,4.11,8.87    C143.21,73.12,143.27,73.23,143.36,73.4z"></path>
		<path d="M181.22,74.99c0-0.91-0.01-1.83,0-2.74c0-0.32-0.08-0.59-0.26-0.85c-1.65-2.41-3.28-4.82-4.92-7.24    c-0.08-0.13-0.26-0.25-0.18-0.41c0.08-0.16,0.29-0.09,0.44-0.09c0.7-0.01,1.41,0.01,2.11-0.01c0.35-0.01,0.56,0.12,0.74,0.41    c1.06,1.6,2.15,3.19,3.21,4.79c0.19,0.29,0.28,0.33,0.5,0.01c1.09-1.62,2.2-3.22,3.29-4.84c0.17-0.26,0.37-0.38,0.68-0.37    c0.74,0.02,1.49,0,2.23,0.01c0.13,0,0.29-0.05,0.36,0.1c0.05,0.12-0.07,0.22-0.14,0.31c-1.6,2.36-3.19,4.73-4.81,7.08    c-0.32,0.47-0.47,0.94-0.46,1.51c0.03,1.76,0,3.53,0.02,5.29c0,0.37-0.12,0.49-0.48,0.47c-0.64-0.02-1.27-0.02-1.91,0    c-0.33,0.01-0.45-0.11-0.44-0.44C181.22,76.98,181.22,75.99,181.22,74.99z"></path>
		<path d="M92.77,71.02c0,2.28,0,4.56,0,6.84c0,0.55,0,0.55-0.56,0.55c-0.58,0-1.17-0.02-1.75,0.01c-0.41,0.02-0.52-0.12-0.52-0.52    c0.01-3.78,0.01-7.55,0.01-11.33c0-0.81,0.01-1.62-0.01-2.42c-0.01-0.36,0.11-0.5,0.47-0.49c0.61,0.02,1.22,0,1.83,0.01    c0.48,0,0.52,0.04,0.52,0.53C92.77,66.46,92.77,68.74,92.77,71.02z"></path>
		<path d="M225.23,58.95c-1-0.04-1.75-0.85-1.71-1.82c0.04-0.95,0.88-1.72,1.83-1.67c0.98,0.05,1.74,0.87,1.7,1.8    C227,58.22,226.18,58.98,225.23,58.95z"></path>
		<path d="M48.6,64.22c0-1.15,0.01-2.31,0-3.46c0-0.3,0.09-0.49,0.36-0.64c1.59-0.88,3.17-1.78,4.74-2.69    c0.24-0.14,0.45-0.15,0.71-0.05c0.96,0.39,1.33,1.15,1.06,2.26c-0.25,0.99-0.75,1.87-1.33,2.69c-1.43,2.05-3.07,3.92-5.01,5.52    c-0.05,0.04-0.1,0.09-0.15,0.13c-0.08,0.06-0.17,0.16-0.28,0.12c-0.14-0.06-0.1-0.2-0.1-0.32c0-1.1,0-2.2,0-3.3    C48.6,64.4,48.6,64.31,48.6,64.22z"></path>
		<path d="M48.6,53.52c0-1.14,0-2.28,0-3.42c0-0.45,0.07-0.53,0.52-0.46c1.67,0.27,3.25,0.78,4.62,1.8c1.26,0.93,1.32,1.9,0.03,3.08    c-0.59,0.54-1.31,0.9-2.01,1.27c-0.89,0.47-1.78,0.95-2.67,1.43c-0.46,0.24-0.49,0.22-0.5-0.32C48.6,55.77,48.6,54.64,48.6,53.52z    "></path>
	</g>
</g>
</svg>
