<?xml version="1.0" encoding="UTF-8"?>
<!-- Generator: Adobe Illustrator 26.0.1, SVG Export Plug-In . SVG Version: 6.00 Build 0)  -->
<svg xmlns="http://www.w3.org/2000/svg" xmlns:xlink="http://www.w3.org/1999/xlink" version="1.1" id="Layer_1" x="0px" y="0px" viewBox="0 0 250 120" style="enable-background:new 0 0 250 120;" xml:space="preserve">
<g>
	<g>
		<path d="M57.26,52.42c0-3.67,0.03-7.34-0.01-11.01c-0.04-3.16-0.15-6.32-0.24-9.47c-0.04-1.38-0.62-2.12-1.99-2.54    c-1.48-0.45-3.01-0.7-4.53-1.01c-0.94-0.19-0.94-0.19-0.94-1.16c0-0.53,0.01-1.06,0-1.59c0-0.41,0.16-0.62,0.6-0.61    c2.99,0.08,5.98,0.14,8.97,0.21c0.32,0.01,0.64,0.03,0.95,0.03c7.85,0,15.71,0.02,23.56,0c3.1-0.01,6.18-0.28,9.26-0.58    c0.55-0.05,1.1-0.08,1.65-0.16c0.51-0.07,0.66,0.12,0.64,0.63c-0.08,1.71-0.12,3.43-0.18,5.15c-0.07,2.08-0.15,4.15-0.22,6.23    c-0.04,1.08-0.09,2.16-0.11,3.24c-0.01,0.35-0.11,0.58-0.5,0.57c-0.74,0-1.49,0-2.23,0c-0.38,0-0.49-0.25-0.57-0.56    c-0.45-1.64-0.9-3.27-1.35-4.9c-0.41-1.46-0.89-2.88-1.83-4.1c-0.87-1.14-2.01-1.74-3.44-1.74c-5.86,0-11.72,0-17.57,0    c-1.04,0-1.17,0.15-1.17,1.18c0,6.43,0,12.85,0,19.28c0,0.86,0,0.86,0.89,0.86c3.29,0,6.58-0.06,9.86-0.27    c0.83-0.05,1.63-0.25,2.41-0.54c1.04-0.39,1.41-1.28,1.65-2.25c0.38-1.56,0.79-3.12,1.13-4.7c0.13-0.63,0.42-0.83,1.04-0.79    c0.68,0.05,1.36,0.02,2.04,0.01c0.42-0.01,0.55,0.16,0.52,0.58c-0.2,3.04-0.45,6.09-0.52,9.14c-0.04,1.6,0,3.22,0.12,4.83    c0.12,1.57,0,3.14,0.15,4.7c0.03,0.31-0.1,0.5-0.42,0.5c-0.87,0.01-1.74,0.01-2.61,0.01c-0.39,0-0.47-0.28-0.54-0.59    c-0.21-1.02-0.43-2.03-0.64-3.05c-0.16-0.76-0.45-1.46-0.84-2.12c-0.75-1.25-1.98-1.59-3.31-1.7c-3.41-0.3-6.82-0.26-10.24-0.29    c-0.58,0-0.71,0.21-0.71,0.75c0.02,5.45,0,10.9,0.01,16.35c0.01,2.86,1.44,4.43,4.32,4.47c4.88,0.07,9.76,0.09,14.64-0.01    c3.25-0.06,5.64-1.67,7.03-4.65c1.02-2.19,2.03-4.39,2.99-6.61c0.27-0.62,0.61-0.9,1.29-0.82c0.48,0.05,0.98,0.02,1.46,0.01    c0.4-0.01,0.52,0.2,0.47,0.56c-0.31,2.46-0.64,4.91-0.93,7.38c-0.3,2.5-0.57,5.01-0.84,7.51c-0.09,0.89-0.09,0.94-0.98,0.91    c-10.97-0.32-21.94-0.27-32.91-0.24c-4.05,0.01-8.1,0.16-12.15,0.24c-0.83,0.02-0.85-0.01-0.85-0.85c0-0.53,0.02-1.06,0-1.59    c-0.02-0.49,0.2-0.72,0.68-0.81c1.33-0.27,2.65-0.58,3.97-0.88c2.14-0.48,2.76-1.29,2.83-3.49    C57.24,65.53,57.31,58.98,57.26,52.42z"></path>
		<path d="M181.82,72.03c0.72-1.61,1.38-3.05,2.01-4.5c2.27-5.23,4.44-10.51,6.53-15.81c0.23-0.59,0.43-1.2,0.6-1.81    c0.4-1.45-0.15-2.55-1.53-3.15c-0.72-0.31-1.48-0.52-2.24-0.7c-0.56-0.13-0.85-0.38-0.78-1c0.05-0.48,0.03-0.98,0.01-1.46    c-0.02-0.46,0.15-0.65,0.62-0.63c2.01,0.07,4.03,0.07,6.04,0.19c1.74,0.1,3.47-0.08,5.21-0.11c0.87-0.01,1.74-0.04,2.61-0.08    c0.41-0.02,0.58,0.15,0.58,0.55c-0.01,0.59,0,1.19,0,1.78c0,0.34-0.15,0.59-0.42,0.81c-0.58,0.47-1.15,0.93-1.88,1.16    c-1.72,0.55-2.67,1.83-3.35,3.42c-2.9,6.83-5.81,13.66-8.75,20.47c-1.62,3.76-3.09,7.58-4.97,11.22    c-1.57,3.05-3.36,5.94-5.69,8.48c-2.8,3.06-6.13,5.16-10.34,5.58c-3.29,0.33-6.48,0-9.44-1.64c-0.88-0.49-0.88-0.49-0.64-1.43    c0.73-2.94,1.15-5.95,1.61-8.94c0.08-0.5,0.23-0.76,0.78-0.77c0.59-0.01,1.18-0.09,1.77-0.18c0.54-0.09,0.76,0.1,0.86,0.63    c0.31,1.73,0.65,3.46,1,5.18c0.32,1.58,1.28,2.37,2.9,2.41c2.9,0.07,5.31-1.12,7.46-2.94c2.16-1.83,3.81-4.08,5.25-6.51    c0.15-0.26,0.2-0.49,0.08-0.78c-4.27-10.5-8.33-21.1-13.04-31.43c-0.08-0.17-0.17-0.34-0.24-0.52c-0.59-1.54-1.56-2.66-3.27-2.96    c-0.02,0-0.04-0.01-0.06-0.02c-1.37-0.55-1.16-0.26-1.17-1.7c-0.01-1.65,0-1.67,1.64-1.62c1.8,0.06,3.6,0.17,5.4,0.22    c2.38,0.07,4.74-0.2,7.12-0.3c1.29-0.05,2.58-0.12,3.87-0.2c0.44-0.03,0.63,0.16,0.61,0.59c0,0.02,0,0.04,0,0.06    c0.09,2.16,0.09,2.16-2.02,2.64c-0.6,0.14-1.21,0.22-1.78,0.47c-1.19,0.52-1.72,1.68-1.3,2.88c2.54,7.26,5.18,14.49,8.01,21.65    C181.56,71.45,181.65,71.64,181.82,72.03z"></path>
		<path d="M145.83,42.08c2.78,0.12,6.07,0.37,9.26,1.36c0.65,0.2,0.85,0.47,0.72,1.17c-0.47,2.5-0.7,5.04-0.68,7.58    c0.01,0.63-0.24,0.9-0.85,0.88c-0.19,0-0.38,0.01-0.57,0.02c-1.49,0.12-1.49,0.12-1.99-1.31c-0.43-1.22-0.88-2.43-1.29-3.66    c-0.28-0.86-0.81-1.5-1.6-1.89c-2.73-1.35-5.52-1.38-8.2-0.01c-2.95,1.51-3.18,5.49-0.59,7.78c1.72,1.51,3.78,2.41,5.83,3.34    c2.59,1.17,5.19,2.31,7.48,4.05c5.38,4.09,4.95,11.8,0.77,15.52c-2.22,1.98-4.87,2.95-7.75,3.4c-4.05,0.63-7.99-0.03-11.88-1.07    c-0.84-0.23-1.66-0.51-2.49-0.76c-0.37-0.11-0.51-0.32-0.45-0.71c0.41-2.94,0.28-5.88,0.01-8.81c-0.12-1.28-0.12-1.3,1.16-1.28    c2.02,0.03,1.52-0.3,2.31,1.53c0.57,1.32,1.12,2.66,1.67,3.99c1.04,2.54,3.02,3.81,5.67,4.09c1.24,0.13,2.5,0.12,3.74-0.17    c4.98-1.15,5.01-6.66,2.69-9.09c-1-1.04-2.16-1.85-3.45-2.47c-1.85-0.9-3.74-1.72-5.6-2.59c-1.64-0.76-3.18-1.69-4.6-2.82    c-5.06-4.03-4.86-14.04,3.16-16.96C140.57,42.4,142.9,42.07,145.83,42.08z"></path>
		<path d="M105.81,60.13c0-3.78-0.01-7.55,0.01-11.33c0-0.6-0.16-0.81-0.79-0.8c-1.7,0.04-3.4-0.01-5.09,0.02    c-0.57,0.01-0.76-0.21-0.73-0.74c0.02-0.4,0-0.81,0-1.21c0-0.93,0-0.93,0.93-1.06c2.53-0.37,4.69-1.44,6.41-3.35    c1.31-1.46,2.18-3.17,2.83-5.01c0.44-1.24,0.79-2.51,1.01-3.81c0.09-0.51,0.31-0.73,0.85-0.7c0.68,0.04,1.36,0.04,2.04,0    c0.56-0.03,0.74,0.2,0.74,0.74c-0.02,3.25-0.01,6.49-0.01,9.74c0,1.19,0,1.16,1.22,1.09c3.07-0.18,6.14-0.33,9.21-0.48    c0.84-0.04,0.86-0.02,0.79,0.81c-0.12,1.35-0.27,2.7-0.4,4.05c-0.03,0.32-0.15,0.5-0.53,0.47c-2.75-0.22-5.5-0.42-8.24-0.63    c-0.61-0.05-1.23-0.1-1.84-0.16c-0.33-0.03-0.47,0.12-0.47,0.44c0,0.08,0,0.17,0,0.25c0,6.85,0,13.7,0.01,20.55    c0,1.32,0.19,2.62,0.65,3.87c0.85,2.31,2.71,3.39,5.15,3.11c2.08-0.24,3.83-1.03,5.14-2.69c0.2-0.25,0.37-0.23,0.56,0    c0.23,0.28,0.47,0.55,0.7,0.82c0.79,0.91,0.8,0.93,0.14,1.96c-1.22,1.87-2.95,3.09-5.03,3.82c-3.22,1.15-6.47,1.4-9.7,0.08    c-3.26-1.34-5-3.87-5.45-7.32c-0.24-1.82-0.09-3.64-0.11-5.47C105.79,64.84,105.81,62.48,105.81,60.13z"></path>
	</g>
</g>
</svg>
