<?xml version="1.0" encoding="UTF-8"?>
<!-- Generator: Adobe Illustrator 26.0.1, SVG Export Plug-In . SVG Version: 6.00 Build 0)  -->
<svg xmlns="http://www.w3.org/2000/svg" xmlns:xlink="http://www.w3.org/1999/xlink" version="1.1" id="Layer_1" x="0px" y="0px" viewBox="0 0 250 120" style="enable-background:new 0 0 250 120;" xml:space="preserve">
<g>
	<g>
		<path d="M188.33,47.56c1.06,0.23,2.14,0.36,3.17,0.74c3.58,1.32,6.29,3.56,7.62,7.23c0.36,1,0.28,1.09-0.76,1.1    c-1.57,0-3.13,0-4.7,0c-0.42,0-0.76-0.05-0.97-0.5c-1.5-3.18-4.25-4.13-7.5-3.89c-3.1,0.23-5.48,1.73-6.57,4.72    c-1.16,3.17-0.84,6.2,1.53,8.79c2.69,2.93,10.05,3.68,12.43-2.04c0.4-0.96,0.94-1.21,1.9-1.16c1.46,0.07,2.92,0.05,4.38,0.01    c0.75-0.02,0.83,0.25,0.65,0.89c-1.34,4.99-5.21,8.34-10.55,9.02c-3.49,0.45-6.94,0.29-10.24-1.09    c-5.52-2.32-7.55-7.41-7.09-12.42c0.59-6.4,5.21-10.41,11.45-11.27c0.16-0.02,0.31-0.07,0.46-0.11    C185.14,47.56,186.73,47.56,188.33,47.56z"></path>
		<path d="M92.87,60.8c1.53,0.58,2.32,1.76,2.57,3.32c0.08,0.47,0.15,0.94,0.17,1.41c0.07,1.97,0.02,3.96,0.83,5.84    c0.15,0.35-0.07,0.48-0.4,0.48c-1.86,0-3.71,0-5.57,0c-0.39,0-0.55-0.23-0.66-0.56c-0.21-0.66-0.31-1.33-0.31-2.02    c0-1.16,0.05-2.32-0.15-3.47c-0.25-1.39-1.01-2.16-2.42-2.33c-2.54-0.31-5.09-0.08-7.63-0.14c-0.61-0.01-0.57,0.42-0.57,0.82    c0,2.19,0,4.38,0,6.57c0,1.14-0.01,1.14-1.15,1.14c-1.35,0-2.71-0.02-4.06,0.01c-0.63,0.01-0.9-0.17-0.9-0.85    c0.02-7.28,0.02-14.57,0-21.85c0-0.66,0.24-0.86,0.88-0.86c5.25,0.02,10.51-0.01,15.76,0.04c2.06,0.02,3.99,0.51,5.52,2.04    c2.92,2.92,2.32,7.76-1.22,9.88C93.34,60.39,93.06,60.44,92.87,60.8z M83.49,53.16c0,0,0-0.01,0-0.01c-1.35,0-2.7,0.01-4.05-0.01    c-0.51-0.01-0.72,0.19-0.71,0.7c0.02,1.26,0.01,2.53,0,3.79c-0.01,0.51,0.23,0.7,0.73,0.7c2.49,0.02,4.98,0.09,7.47,0.08    c0.7,0,1.43-0.06,2.06-0.49c0.88-0.61,1.31-1.75,1.03-2.78c-0.33-1.2-1.19-1.93-2.47-1.98C86.19,53.13,84.84,53.16,83.49,53.16z"></path>
		<path d="M123.96,60.06c0-3.56,0-7.13,0-10.69c0-1.04,0.02-1.06,1.07-1.06c6.53,0,13.06,0,19.59,0c1.05,0,1.05,0.01,1.06,1.06    c0,0.9,0,1.8,0,2.69c0,1.1,0,1.11-1.09,1.11c-4.49,0-8.97,0-13.46,0c-1.06,0-1.06,0-1.07,1.03c0,0.66,0,1.32,0,1.98    c0,1.19,0,1.19,1.16,1.19c3.8,0,7.59,0,11.39,0c1.28,0,1.28,0,1.28,1.26c0,0.82,0,1.64,0,2.46c0,1.24,0,1.24-1.22,1.24    c-3.88,0-7.75,0.02-11.63-0.01c-0.74-0.01-1.06,0.18-1.01,0.97c0.06,0.92,0.05,1.85,0,2.77c-0.04,0.72,0.19,0.95,0.94,0.95    c4.51-0.03,9.03-0.02,13.54-0.02c1.14,0,1.15,0,1.15,1.13c0,0.98-0.02,1.95,0.01,2.93c0.01,0.55-0.15,0.81-0.76,0.81    c-6.72-0.02-13.43-0.03-20.15-0.01c-0.73,0-0.82-0.36-0.82-0.94C123.96,67.3,123.96,63.68,123.96,60.06z"></path>
		<path d="M226.6,60.08c0,3.59-0.02,7.18,0.01,10.77c0.01,0.74-0.21,1.04-0.99,1.01c-1.4-0.05-2.81-0.04-4.22,0    c-0.7,0.02-0.93-0.24-0.92-0.92c0.03-2.56-0.01-5.12,0.02-7.68c0.01-0.74-0.24-0.95-0.96-0.94c-3.34,0.03-6.69,0.03-10.03,0    c-0.69-0.01-0.93,0.19-0.92,0.9c0.04,2.56-0.01,5.12,0.03,7.68c0.01,0.71-0.2,0.99-0.95,0.97c-1.38-0.05-2.76-0.05-4.14,0    c-0.82,0.03-1.05-0.26-1.04-1.05c0.02-5.86,0.01-11.72,0.01-17.58c0-1.37,0.02-2.74-0.01-4.12c-0.01-0.61,0.23-0.84,0.85-0.83    c1.46,0.03,2.92,0.04,4.38,0c0.72-0.02,0.9,0.27,0.9,0.93c-0.03,2.43,0.01,4.86-0.02,7.28c-0.01,0.65,0.2,0.88,0.87,0.87    c3.4-0.02,6.79-0.02,10.19,0c0.67,0,0.87-0.25,0.87-0.89c-0.02-2.4,0.01-4.8-0.02-7.2c-0.01-0.75,0.23-1.03,1.01-1    c1.32,0.05,2.65,0.01,3.98,0.01c1.11,0,1.12,0,1.12,1.09C226.6,52.95,226.6,56.52,226.6,60.08z"></path>
		<path d="M67.22,71.84c-0.82,0-1.65-0.02-2.47,0.01c-0.5,0.02-0.78-0.19-0.98-0.63c-0.56-1.19-1.18-2.37-1.74-3.56    c-0.21-0.45-0.5-0.61-0.99-0.61c-2.97,0.01-5.95,0.02-8.92,0c-0.52,0-0.84,0.17-1.05,0.65c-0.49,1.14-1.04,2.25-1.53,3.4    c-0.23,0.53-0.53,0.77-1.14,0.76c-1.59-0.04-3.19-0.01-4.78-0.01c-0.96,0-1-0.07-0.6-0.91c1.67-3.51,3.34-7.01,5.01-10.52    c1.78-3.72,3.58-7.43,5.32-11.16c0.35-0.74,0.77-1.01,1.58-0.96c1.22,0.07,2.44,0.04,3.66,0.01c0.56-0.02,0.86,0.19,1.1,0.69    c3.1,6.54,6.23,13.07,9.34,19.6c0.41,0.86,0.82,1.72,1.24,2.57c0.23,0.46,0.11,0.69-0.43,0.69C68.97,71.83,68.1,71.84,67.22,71.84    z M56.02,55.34c-0.92,2.23-1.75,4.25-2.58,6.27c-0.18,0.44,0.08,0.49,0.42,0.49c1.54,0,3.08,0,4.62,0c0.38,0,0.57-0.11,0.39-0.51    C57.96,59.58,57.04,57.57,56.02,55.34z"></path>
		<path d="M23.55,60.05c0-3.59,0.02-7.18-0.01-10.77c-0.01-0.76,0.24-1,1-0.99c6.29,0.03,12.58,0.02,18.87,0    c0.73,0,0.99,0.23,0.95,0.95c-0.05,1-0.05,2.01,0,3.01c0.04,0.76-0.27,0.93-0.98,0.93c-4.22-0.02-8.44-0.01-12.66-0.01    c-1.07,0-1.07,0-1.07,1.04c0,0.74,0.04,1.48-0.01,2.22c-0.05,0.73,0.23,0.96,0.96,0.96c3.64-0.03,7.27-0.02,10.91-0.01    c1.74,0,1.66-0.17,1.66,1.69c0,0.71,0,1.43,0,2.14c-0.01,1.11-0.03,1.13-1.18,1.13c-3.77,0-7.54,0.02-11.31-0.02    c-0.8-0.01-1.06,0.22-1.04,1.03c0.05,2.43,0.02,4.86,0.02,7.29c0,1.21,0,1.21-1.25,1.21c-1.3,0-2.6-0.03-3.9,0.01    c-0.72,0.02-0.97-0.22-0.97-0.95C23.57,67.29,23.55,63.67,23.55,60.05z"></path>
		<path d="M100.33,60.02c0-3.59,0.01-7.18-0.01-10.77c-0.01-0.7,0.19-0.97,0.94-0.97c6.31,0.03,12.63,0.03,18.94,0    c0.75,0,0.97,0.26,0.94,0.97c-0.04,0.97-0.05,1.95,0,2.93c0.04,0.75-0.22,1.01-0.99,1c-4.25-0.03-8.49-0.02-12.74-0.01    c-1.07,0-1.07,0-1.07,1.04c0,0.69,0,1.37,0,2.06c0,1.1,0,1.11,1.08,1.11c3.74,0,7.48,0,11.22,0c1.31,0,1.31,0,1.32,1.32    c0,0.9-0.02,1.8,0.01,2.69c0.02,0.71-0.24,0.97-0.98,0.96c-3.82-0.03-7.64-0.01-11.46-0.01c-1.19,0-1.19,0-1.19,1.22    c0,2.43-0.02,4.86,0.01,7.28c0.01,0.74-0.19,1.04-0.98,1.01c-1.38-0.05-2.76-0.04-4.14,0c-0.69,0.02-0.93-0.21-0.92-0.91    C100.35,67.31,100.33,63.66,100.33,60.02z"></path>
		<path d="M159.72,48.3c3.4,0,6.8,0.02,10.19-0.01c0.73-0.01,0.99,0.22,0.95,0.95c-0.05,1-0.05,2.01,0,3.01    c0.04,0.75-0.26,0.94-0.97,0.93c-2.07-0.04-4.14,0.02-6.21-0.03c-0.79-0.02-0.97,0.26-0.97,1c0.03,5.54,0.02,11.09,0.01,16.63    c0,1.06,0,1.06-1.05,1.07c-1.35,0-2.71-0.03-4.06,0.01c-0.71,0.02-0.9-0.25-0.9-0.93c0.02-5.6,0-11.2,0.03-16.79    c0-0.75-0.19-1.01-0.97-0.99c-2.04,0.05-4.09,0.02-6.13,0.02c-1.04,0-1.04-0.01-1.04-1.07c0-0.95,0.04-1.9-0.01-2.85    c-0.04-0.71,0.2-0.97,0.94-0.96C152.92,48.32,156.32,48.3,159.72,48.3z"></path>
	</g>
</g>
</svg>
