<?xml version="1.0" encoding="UTF-8"?>
<!-- Generator: Adobe Illustrator 26.0.1, SVG Export Plug-In . SVG Version: 6.00 Build 0)  -->
<svg xmlns="http://www.w3.org/2000/svg" xmlns:xlink="http://www.w3.org/1999/xlink" version="1.1" id="Layer_1" x="0px" y="0px" viewBox="0 0 250 120" style="enable-background:new 0 0 250 120;" xml:space="preserve">
<g>
	<g>
		<path d="M197.34,79.02c-1.5-0.22-3.02-0.21-4.5-0.53c-3.37-0.73-6.51-1.93-8.98-4.45c-1.4-1.43-2.24-3.14-2.54-5.12    c-0.12-0.77,0.04-1.2,0.93-1.18c1.38,0.03,2.77,0.01,4.15,0.01c0.4,0,0.78,0.02,0.92,0.54c0.46,1.84,1.86,2.86,3.46,3.54    c4.76,2.02,9.55,2.01,14.29-0.09c1.06-0.47,2-1.15,2.68-2.13c0.62-0.89,0.55-1.18-0.43-1.64c-6.18-2.88-12.37-5.75-18.55-8.62    c-2.21-1.03-4.41-2.07-6.64-3.06c-0.66-0.3-0.96-0.69-0.91-1.43c0.07-1.28-0.11-2.57,0.13-3.83c0.58-3.02,2.46-5.13,5.01-6.64    c3.96-2.34,8.31-3.04,12.85-2.75c3.5,0.22,6.84,1.04,9.83,2.95c2.43,1.55,4.14,3.64,4.71,6.53c0.29,1.49,0.13,1.69-1.36,1.69    c-1.19,0-2.37-0.01-3.56,0c-0.59,0.01-0.96-0.13-1.1-0.82c-0.26-1.23-1.16-2.03-2.17-2.69c-1.67-1.07-3.52-1.64-5.47-1.87    c-3.43-0.4-6.78-0.16-9.91,1.48c-1.07,0.56-1.99,1.28-2.59,2.36c-0.39,0.71-0.29,1.16,0.53,1.54c7.48,3.44,14.94,6.93,22.41,10.4    c1.28,0.6,2.56,1.2,3.85,1.8c0,1.38,0,2.76,0,4.14c-0.29,0.97-0.54,1.95-1.06,2.84c-1.84,3.14-4.77,4.77-8.1,5.88    c-2.17,0.72-4.43,0.91-6.68,1.13C198.13,79.02,197.74,79.02,197.34,79.02z"></path>
		<path d="M92.9,42.31c1.19,0,2.38,0.05,3.56-0.02c0.87-0.05,1.28,0.32,1.6,1.09c3.79,8.96,7.62,17.9,11.43,26.84    c1.01,2.36,2,4.72,3.02,7.07c0.31,0.71,0.22,1.02-0.63,1c-1.42-0.04-2.84-0.05-4.25,0.01c-0.81,0.04-1.16-0.31-1.45-1.01    c-1.49-3.58-3.05-7.13-4.53-10.71c-0.31-0.76-0.62-0.8-1.31-0.48c-6.36,2.98-12.72,5.94-19.1,8.85c-1,0.46-1.24,1.33-1.54,2.16    c-0.33,0.93-0.86,1.26-1.84,1.19c-1.28-0.08-2.57-0.01-3.86-0.02c-1.03-0.01-1.09-0.11-0.68-1.09c2.81-6.59,5.61-13.18,8.42-19.77    c2.01-4.71,4.04-9.42,6.02-14.15c0.3-0.71,0.67-1.03,1.46-0.99C90.46,42.35,91.68,42.31,92.9,42.31    C92.9,42.31,92.9,42.31,92.9,42.31z M92.76,46.34c-2.98,7.03-5.97,14.08-8.96,21.11c0.3,0.19,0.48,0.05,0.65-0.02    c4.66-2.16,9.32-4.33,13.98-6.48c0.6-0.27,0.53-0.59,0.32-1.09c-1.84-4.32-3.66-8.65-5.49-12.97    C93.17,46.69,93.15,46.43,92.76,46.34z"></path>
		<path d="M177.21,78.29c-3.65-0.1-2.67,0.66-4.14-2.73c-1.31-3.01-2.6-6.03-3.86-9.07c-0.27-0.65-0.54-0.74-1.17-0.44    c-6.23,2.92-12.46,5.85-18.73,8.69c-1.13,0.51-1.69,1.3-2,2.36c-0.28,0.95-0.84,1.27-1.82,1.2c-1.28-0.08-2.57-0.01-3.86-0.02    c-1.06-0.01-1.12-0.09-0.7-1.06c2.79-6.56,5.59-13.11,8.39-19.67c2-4.68,4.01-9.36,5.97-14.06c0.37-0.9,0.86-1.24,1.84-1.21    c2.37,0.07,4.75,0.04,7.12,0.02c0.69-0.01,1.07,0.23,1.34,0.88c4.8,11.31,9.62,22.61,14.43,33.91c0.48,1.14,0.44,1.19-0.82,1.2    C178.53,78.29,177.87,78.29,177.21,78.29z M160.62,46.35c-0.09-0.01-0.17-0.02-0.26-0.03c-3,7.07-6,14.15-9.12,21.49    c5.16-2.39,10.02-4.66,14.88-6.91c0.51-0.24,0.43-0.57,0.25-0.97c-0.59-1.39-1.17-2.78-1.76-4.17    C163.28,52.63,161.95,49.49,160.62,46.35z"></path>
		<path d="M36.16,60.31c0-5.58,0.02-11.17-0.02-16.75c-0.01-1,0.29-1.35,1.29-1.28c1.12,0.08,2.24,0.07,3.36,0    c0.92-0.05,1.21,0.3,1.2,1.19c-0.03,4.07-0.01,8.15-0.01,12.22c0,2.07,0,4.14,0,6.21c0,1.08,0.04,1.12,1.03,0.66    c5.26-2.44,10.52-4.88,15.78-7.32c1.4-0.65,2.79-1.35,4.22-1.95c0.69-0.29,0.91-0.71,0.9-1.43c-0.03-2.79,0.01-5.58-0.03-8.38    c-0.01-0.88,0.25-1.25,1.19-1.2c1.15,0.07,2.31,0.07,3.46,0c0.99-0.06,1.22,0.34,1.21,1.26c-0.03,7.16-0.02,14.32-0.02,21.48    c0,3.97,0,7.95,0,11.92c0,1.33-0.01,1.34-1.3,1.34c-1.12,0-2.25-0.05-3.36,0.02c-0.93,0.05-1.19-0.33-1.18-1.21    c0.03-5.49,0.01-10.97,0.01-16.46c0-1.75,0-1.74-1.56-1.01c-6.39,2.97-12.78,5.96-19.2,8.89c-0.88,0.4-1.22,0.88-1.19,1.85    c0.07,2.26,0,4.53,0.03,6.8c0.01,0.86-0.3,1.17-1.16,1.13c-1.19-0.05-2.38-0.06-3.56,0c-0.88,0.04-1.13-0.29-1.13-1.14    C36.18,71.54,36.16,65.93,36.16,60.31z"></path>
		<path d="M126.72,74.37c0.75-1.75,1.4-3.25,2.04-4.75c3.73-8.76,7.47-17.52,11.18-26.29c0.31-0.72,0.68-1.1,1.53-1.05    c1.35,0.07,2.7,0.01,4.05,0.02c1.12,0,1.16,0.07,0.72,1.1c-2.08,4.9-4.17,9.79-6.26,14.68c-2.69,6.31-5.4,12.62-8.06,18.95    c-0.38,0.91-0.83,1.32-1.88,1.29c-2.37-0.08-4.75-0.04-7.12-0.02c-0.65,0.01-1.01-0.21-1.27-0.82    c-4.83-11.37-9.67-22.72-14.51-34.08c-0.43-1.02-0.37-1.09,0.76-1.09c1.25-0.01,2.51,0.06,3.76-0.02    c0.98-0.06,1.47,0.29,1.84,1.19c2.25,5.39,4.57,10.76,6.86,16.14c1.92,4.5,3.83,9,5.75,13.51    C126.27,73.44,126.44,73.76,126.72,74.37z"></path>
	</g>
</g>
</svg>
