<?xml version="1.0" encoding="UTF-8"?>
<!-- Generator: Adobe Illustrator 26.0.1, SVG Export Plug-In . SVG Version: 6.00 Build 0)  -->
<svg xmlns="http://www.w3.org/2000/svg" xmlns:xlink="http://www.w3.org/1999/xlink" version="1.1" id="Layer_1" x="0px" y="0px" viewBox="0 0 250 120" style="enable-background:new 0 0 250 120;" xml:space="preserve">
<g>
	<g>
		<path d="M227.85,67.08c-0.27,1.21-0.84,2.24-1.86,2.99c-2.26,1.67-5.5,1.05-6.96-1.34c-0.15-0.25-0.3-0.5-0.44-0.75    c-0.15,0.04-0.16,0.16-0.2,0.25c-0.89,1.87-2.39,2.83-4.44,2.77c-2.03-0.05-3.46-1.13-4.31-2.96c-0.29-0.62-0.42-1.29-0.42-1.98    c-0.01-3.73,0-7.46,0-11.2c0-0.61,0.07-1.22,0.21-1.82c0.47-1.93,1.81-3.14,3.78-3.43c0.41-0.06,0.82-0.09,1.24-0.09    c2.13,0,4.25,0,6.38,0c3.39,0.01,6.15,2.34,6.6,5.68c0.28,2.06-0.24,3.92-1.87,5.35c-0.2,0.17-0.19,0.3-0.06,0.5    c0.44,0.67,0.85,1.36,1.29,2.03c0.47,0.72,0.88,1.46,1.07,2.31C227.85,65.96,227.85,66.52,227.85,67.08z"></path>
		<path d="M31.84,52.68c0.41-0.55,0.78-1.07,1.17-1.57c1.78-2.28,5.13-2.55,7.25-0.59c1.72,1.59,1.96,4.23,0.57,6.2    c-0.67,0.95-1.36,1.88-2.06,2.81c-0.19,0.25-0.18,0.42,0,0.66c0.67,0.9,1.33,1.8,1.98,2.72c1.09,1.54,1.33,3.2,0.51,4.91    c-0.8,1.7-2.19,2.66-4.09,2.81c-1.83,0.14-3.32-0.54-4.43-2c-0.26-0.34-0.49-0.7-0.74-1.04c-0.05-0.07-0.1-0.19-0.2-0.18    c-0.13,0.01-0.13,0.15-0.17,0.24c-0.68,1.77-1.98,2.76-3.84,2.97c-2.06,0.23-3.69-0.56-4.79-2.33c-0.44-0.7-0.65-1.48-0.65-2.32    c0-4.04-0.01-8.08,0-12.12c0.01-2.36,1.86-4.37,4.21-4.64c2.51-0.29,4.62,1.23,5.17,3.3C31.76,52.55,31.79,52.58,31.84,52.68z"></path>
		<path d="M84.67,67.25c-0.2,0.67-0.44,1.22-0.83,1.68c-1.31,1.55-3,2.02-4.91,1.58c-1.93-0.45-3.11-1.73-3.59-3.65    c-0.08-0.34-0.09-0.69-0.09-1.03c0-3.93,0.04-7.87-0.01-11.8c-0.03-2.18,1.57-4.73,4.69-4.85c2.15-0.08,3.93,1.13,4.63,3.04    c0.05,0.14,0.1,0.28,0.17,0.48c0.35-0.49,0.68-0.94,1-1.38c0.82-1.12,1.92-1.79,3.28-2.04c2.65-0.48,5.26,1.44,5.57,4.1    c0.14,1.19-0.13,2.28-0.81,3.26c-0.69,0.98-1.4,1.95-2.12,2.91c-0.17,0.23-0.18,0.39,0,0.63c0.71,0.95,1.43,1.9,2.1,2.88    c1.87,2.73,0.62,6.35-2.53,7.38c-1.96,0.64-4.21-0.05-5.46-1.7C85.4,68.28,85.07,67.8,84.67,67.25z"></path>
		<path d="M161.06,67.98c-0.12,0.03-0.13,0.11-0.15,0.16c-0.91,1.95-2.7,3.04-4.71,2.87c-2.05-0.17-3.78-1.64-4.33-3.67    c-0.13-0.47-0.18-0.94-0.18-1.42c0-3.63,0-7.25,0-10.88c0-0.68,0.06-1.36,0.22-2.02c0.47-1.89,1.87-3.14,3.81-3.41    c0.43-0.06,0.85-0.09,1.28-0.08c2.09,0,4.17,0,6.26,0c3.36,0.01,6.08,2.24,6.62,5.53c0.35,2.11-0.19,4-1.81,5.48    c-0.22,0.2-0.21,0.34-0.07,0.57c0.55,0.85,1.1,1.7,1.62,2.57c0.99,1.64,1.03,3.32,0.09,4.97c-0.93,1.62-2.41,2.4-4.27,2.35    c-1.72-0.05-3.06-0.86-3.98-2.33C161.32,68.44,161.19,68.2,161.06,67.98z"></path>
		<path d="M204.91,57.7c1.57,1.26,1.51,3.96,0.02,5.14c0.04,0.13,0.16,0.12,0.26,0.15c2.01,0.68,2.91,2.63,2.66,4.38    c-0.31,2.13-1.95,3.63-3.98,3.64c-2.62,0.02-5.24,0.01-7.86,0c-0.51,0-1.01-0.07-1.51-0.2c-1.99-0.51-3.23-1.99-3.43-4.05    c-0.06-0.6-0.07-1.2-0.07-1.8c0-3.31,0-6.61,0-9.92c0-0.68,0.06-1.36,0.22-2.02c0.47-1.91,1.84-3.14,3.8-3.41    c0.41-0.06,0.82-0.09,1.24-0.09c2.49,0,4.98-0.01,7.46,0.01c1.73,0.01,3.01,0.82,3.75,2.36c0.74,1.56,0.56,3.09-0.49,4.48    C206.55,56.95,206.11,57.21,204.91,57.7z"></path>
		<path d="M70.22,59.91c0.89,0.42,1.66,0.9,2.24,1.62c1.86,2.29,1.28,5.89-1.23,7.67c-1.21,0.86-2.59,1.27-4.04,1.4    c-2.17,0.19-4.28-0.09-6.23-1.1c-3.18-1.64-5.03-4.27-5.58-7.78c-0.49-3.1,0.13-5.97,2.06-8.5c1.71-2.24,4.03-3.5,6.8-3.92    c1.99-0.3,3.94-0.15,5.82,0.65c2.91,1.25,4.27,4.43,3.09,7.25c-0.45,1.08-1.27,1.83-2.28,2.38    C70.66,59.69,70.47,59.78,70.22,59.91z"></path>
		<path d="M139.91,67.04c-0.36,0.65-0.72,1.25-1.17,1.77c-1.26,1.47-2.86,2.08-4.76,1.76c-1.99-0.33-3.44-1.4-4.16-3.34    c-0.46-1.23-0.37-2.47,0.14-3.67c1.02-2.43,2.08-4.85,3.13-7.28c0.45-1.04,0.89-2.08,1.35-3.12c0.55-1.25,1.25-2.39,2.42-3.16    c2.02-1.34,5.92-1.31,7.74,1.5c0.67,1.04,1.11,2.19,1.6,3.31c1.25,2.87,2.51,5.74,3.72,8.63c0.96,2.28,0.35,4.67-1.47,6.06    c-2.15,1.63-5.72,1.81-7.8-1.29C140.4,67.86,140.18,67.48,139.91,67.04z"></path>
		<path d="M99.59,62.23c-0.37-0.35-0.68-0.64-0.99-0.92c-0.83-0.76-1.61-1.55-2.18-2.54c-1.42-2.44-0.89-6.99,3.11-8.73    c1.74-0.76,3.57-0.94,5.45-0.85c1.22,0.06,2.42,0.2,3.58,0.6c0.99,0.34,1.89,0.82,2.55,1.66c0.87,1.11,1.14,2.37,0.83,3.73    c-0.3,1.32-1.21,2.09-2.47,2.48c-0.16,0.05-0.41,0.01-0.44,0.18c-0.03,0.17,0.21,0.25,0.34,0.36c0.78,0.71,1.57,1.4,2.24,2.23    c2.15,2.7,1.41,7-1.42,8.92c-1.35,0.92-2.86,1.38-4.46,1.56c-2.01,0.22-4.01,0.13-5.97-0.39c-1.28-0.33-2.44-0.88-3.28-1.95    c-1.13-1.42-1.17-3.63-0.09-4.94c0.63-0.77,1.49-1.14,2.46-1.3C99.05,62.3,99.26,62.28,99.59,62.23z"></path>
		<path d="M180.12,49.53c1.64,0,3.29-0.01,4.93,0c2.39,0.01,4.29,1.72,4.58,4.19c0.25,2.12-1.1,4.27-3.33,4.91    c-0.06,0.02-0.13,0.04-0.19,0.05c-0.79,0.17-0.79,0.17-0.79,1c0,2.03,0,4.05,0,6.08c0,2.25-0.97,3.92-3.07,4.8    c-2.09,0.87-4.05,0.55-5.74-0.97c-0.97-0.87-1.5-2-1.5-3.33c0-2.32-0.01-4.64,0-6.96c0-0.36-0.08-0.49-0.47-0.56    c-2.23-0.37-3.87-2.2-3.91-4.47c-0.05-2.83,2.13-4.69,4.47-4.74C176.78,49.51,178.45,49.54,180.12,49.53    C180.12,49.54,180.12,49.54,180.12,49.53z"></path>
		<path d="M122.26,49.53c1.61,0,3.21-0.01,4.82,0c2.58,0.01,4.63,1.94,4.7,4.5c0.07,2.38-1.61,4.39-3.98,4.73    c-0.34,0.05-0.41,0.18-0.41,0.48c0.01,2.21-0.06,4.43,0.02,6.64c0.08,2.4-1.62,4.52-4.12,5.03c-2.64,0.54-5.29-1.01-6.01-3.53    c-0.15-0.52-0.18-1.05-0.18-1.58c-0.01-2.15-0.01-4.29,0-6.44c0-0.37-0.07-0.54-0.49-0.63c-2-0.41-3.32-1.61-3.75-3.6    c-0.42-1.94,0.24-3.55,1.84-4.75c0.76-0.57,1.64-0.84,2.59-0.85C118.95,49.53,120.6,49.54,122.26,49.53z"></path>
		<path d="M43.08,59.88c0-1.84,0-3.68,0-5.52c0.01-2.67,2.03-4.86,4.7-5.16c2.89-0.33,5.76,1.91,5.76,5.16c0.01,3.67,0.01,7.33,0,11    c-0.01,2.97-2.29,5.27-5.24,5.3c-2.8,0.03-5.2-2.31-5.22-5.11C43.07,63.67,43.08,61.77,43.08,59.88z"></path>
	</g>
</g>
</svg>
