<?xml version="1.0" encoding="UTF-8"?>
<!-- Generator: Adobe Illustrator 26.0.1, SVG Export Plug-In . SVG Version: 6.00 Build 0)  -->
<svg xmlns="http://www.w3.org/2000/svg" xmlns:xlink="http://www.w3.org/1999/xlink" version="1.1" id="Layer_1" x="0px" y="0px" viewBox="0 0 250 120" style="enable-background:new 0 0 250 120;" xml:space="preserve">
<g>
	<g>
		<path d="M46.41,86.43c-3.68,0-7.37,0-11.05,0c-0.26,0-0.53,0-0.79-0.05c-1.25-0.24-1.78-1.65-0.99-2.64    c0.1-0.13,0.22-0.24,0.34-0.36c1.4-1.4,2.8-2.8,4.2-4.2c0.09-0.09,0.18-0.19,0.28-0.28c0.2-0.17,0.16-0.32-0.01-0.49    c-0.52-0.51-0.99-1.06-1.45-1.62c-3.09-3.79-5.04-8.09-5.7-12.93c-0.88-6.46,0.39-12.49,3.93-17.99    c3.02-4.69,7.15-8.08,12.33-10.18c2.18-0.89,4.45-1.44,6.8-1.71c1.43-0.17,2.87-0.23,4.3-0.15c3.06,0.17,6.01,0.82,8.84,2    c3.24,1.36,6.11,3.28,8.57,5.78c4.03,4.11,6.55,9.02,7.33,14.73c1.05,7.7-0.89,14.62-5.84,20.62c-3.7,4.48-8.45,7.37-14.1,8.75    c-1.56,0.38-3.14,0.61-4.75,0.67c-3.86,0.14-7.73,0.03-11.59,0.07C46.84,86.43,46.63,86.43,46.41,86.43z M57.56,78.18    c0.76,0.02,1.75-0.05,2.73-0.18c2.53-0.33,4.93-1.05,7.18-2.26c1.72-0.93,3.25-2.09,4.52-3.57c1.58-1.84,2.58-3.94,2.72-6.4    c0.02-0.31,0.16-0.46,0.4-0.61c2.24-1.36,3.29-3.34,3.08-5.97c-0.09-1.08-0.48-2.06-1.12-2.92c-1.98-2.65-5.46-3.27-8.24-1.48    c-0.29,0.19-0.52,0.2-0.81,0.02c-0.66-0.41-1.36-0.74-2.08-1.05c-2.23-0.97-4.58-1.46-7-1.67C58.6,52.06,58.3,52.1,58,52.37    c-0.39,0.36-1.22,0.31-1.6-0.07c-0.21-0.21-0.41-0.24-0.67-0.21c-0.51,0.06-1.02,0.11-1.52,0.17c-2.72,0.34-5.28,1.17-7.64,2.57    c-0.3,0.18-0.52,0.15-0.81-0.04c-1.29-0.85-2.7-1.17-4.24-0.95c-3.05,0.43-5.77,3.32-5.04,7.21c0.34,1.82,1.39,3.19,3,4.1    c0.28,0.16,0.39,0.34,0.42,0.66c0.17,2.08,0.9,3.95,2.15,5.61c1.88,2.51,4.38,4.17,7.26,5.3C51.88,77.74,54.57,78.2,57.56,78.18z     M71.17,45.88c-0.01-0.3-0.01-0.6-0.07-0.89c-0.39-1.84-1.96-3.25-3.79-3.4c-1.96-0.16-3.72,0.94-4.42,2.76    c-0.18,0.47-0.14,0.52,0.38,0.54c0.07,0,0.13,0,0.2,0.01c0.47,0.06,0.84,0.42,0.88,0.86c0.05,0.54-0.21,0.93-0.73,1.08    c-0.14,0.04-0.29,0.06-0.44,0.08c-0.42,0.05-0.44,0.08-0.28,0.49c0.3,0.79,0.8,1.45,1.49,1.93c1.41,0.98,2.92,1.12,4.44,0.34    C70.36,48.89,71.13,47.59,71.17,45.88z"></path>
		<path d="M154.2,74.53c-0.35,0.39-0.66,0.75-1.02,1.06c-1.21,1.03-2.6,1.67-4.15,1.98c-2.47,0.5-4.87,0.27-7.16-0.78    c-2.64-1.21-4.4-3.26-5.51-5.9c-1.02-2.43-1.28-4.97-1.02-7.57c0.21-2.07,0.81-4.01,1.93-5.77c1.87-2.97,4.56-4.71,8.04-5.2    c1.42-0.2,2.83-0.13,4.23,0.18c1.34,0.3,2.55,0.9,3.62,1.76c0.22,0.17,0.43,0.35,0.68,0.55c0.17-0.25,0.14-0.5,0.14-0.73    c0.01-1.29,0-2.58,0.01-3.86c0-2.51,0-5.02,0.01-7.53c0-0.08,0-0.17,0-0.25c0.01-0.5,0.05-0.54,0.54-0.54c0.86-0.01,1.72,0,2.58,0    c1.19,0,2.38,0,3.57,0c0.7,0,0.7,0,0.71,0.73c0,0.05,0,0.1,0,0.15c0,11.26,0,22.52,0,33.78c0,0.93,0.03,0.86-0.86,0.86    c-1.78,0-3.57,0-5.35,0c-0.13,0-0.26,0-0.4,0c-0.38-0.02-0.44-0.06-0.45-0.43c-0.01-0.64,0-1.29-0.01-1.93    C154.3,74.92,154.35,74.75,154.2,74.53z M154.21,71.39c0.11-0.19,0.09-0.34,0.09-0.49c0-1.98,0-3.96,0-5.94    c0-0.45-0.04-0.89-0.12-1.33c-0.54-2.94-2.72-4.7-5.03-4.95c-2.39-0.25-4.35,0.51-5.69,2.53c-1.26,1.89-1.43,3.98-0.74,6.12    c1.41,4.37,6.46,5.15,9.3,2.83c0.09-0.07,0.18-0.14,0.27-0.22c0.17-0.16,0.32-0.14,0.47,0.02c0.27,0.29,0.54,0.58,0.82,0.86    C153.77,71.02,153.92,71.26,154.21,71.39z"></path>
		<path d="M181.64,54.89c0.03-0.76,0.07-1.38,0.08-2c0.01-3.4,0.01-6.8,0.01-10.2c0-0.76,0-0.77,0.76-0.77c1.95,0,3.9,0,5.84,0    c0.08,0,0.17,0,0.25,0c0.47,0.01,0.51,0.05,0.53,0.51c0,0.12,0,0.23,0,0.35c0,11.27,0,22.55,0,33.82c0,0.89,0.02,0.84-0.84,0.84    c-1.8,0-3.6,0-5.4,0c-0.08,0-0.17,0-0.25,0c-0.54-0.01-0.58-0.04-0.58-0.6c-0.01-0.59,0-1.19,0-1.78c0-0.16,0.05-0.33-0.06-0.46    c-0.09-0.02-0.14,0.03-0.18,0.08c-1.32,1.6-3.05,2.49-5.05,2.9c-2.47,0.5-4.87,0.27-7.16-0.79c-2.62-1.2-4.42-3.23-5.47-5.87    c-1.63-4.09-1.64-8.21,0.26-12.21c1.66-3.51,4.45-5.66,8.33-6.31c1.48-0.25,2.96-0.21,4.43,0.1c1.43,0.3,2.71,0.93,3.84,1.86    C181.17,54.51,181.36,54.66,181.64,54.89z M181.96,71.37c0.1-0.2,0.06-0.39,0.06-0.56c0-1.83,0-3.67,0-5.5    c0-0.5-0.02-0.99-0.1-1.48c-0.24-1.46-0.83-2.75-1.96-3.74c-1.38-1.22-3.01-1.66-4.83-1.39c-2.12,0.32-3.59,1.49-4.47,3.42    c-0.64,1.4-0.74,2.87-0.46,4.36c0.64,3.52,3.88,5.61,7.34,4.77c0.89-0.22,1.66-0.63,2.35-1.22c0.33-0.28,0.34-0.27,0.64,0.03    c0.34,0.34,0.67,0.69,1,1.03C181.66,71.2,181.75,71.36,181.96,71.37z"></path>
		<path d="M125.26,67.43c-2.56,0-5.12,0-7.68,0c-0.62,0-0.65,0.04-0.4,0.6c0.97,2.24,2.67,3.53,5.09,3.81    c2.34,0.27,4.52-0.27,6.56-1.43c0.41-0.24,0.42-0.25,0.6,0.19c0.64,1.52,1.27,3.05,1.91,4.57c0.21,0.5,0.19,0.53-0.29,0.81    c-1.39,0.8-2.9,1.27-4.47,1.55c-1.2,0.21-2.42,0.34-3.65,0.29c-2.57-0.09-5.01-0.65-7.21-2.03c-2.81-1.77-4.49-4.33-5.19-7.54    c-0.61-2.81-0.47-5.59,0.6-8.28c1.67-4.22,4.73-6.78,9.23-7.57c2.07-0.36,4.12-0.23,6.11,0.47c3.56,1.24,5.86,3.72,6.96,7.3    c0.67,2.17,0.66,4.39,0.3,6.62c-0.01,0.05-0.02,0.1-0.03,0.15c-0.11,0.46-0.13,0.48-0.59,0.49c-0.13,0-0.26,0-0.4,0    C130.21,67.43,127.73,67.43,125.26,67.43z M122,62.74c1.4,0,2.81,0,4.21,0c1.09,0,0.96,0.01,0.81-0.94    c-0.17-1.14-0.66-2.11-1.6-2.81c-1.34-0.99-2.85-1.18-4.43-0.8c-2.2,0.52-3.44,2.03-4.07,4.12c-0.1,0.33-0.03,0.41,0.32,0.43    c0.12,0.01,0.23,0,0.35,0C119.07,62.74,120.54,62.74,122,62.74z"></path>
		<path d="M213.99,68.14c0,2.86,0,5.71,0,8.57c0,0.73,0,0.74-0.74,0.74c-1.97,0-3.93,0-5.9,0c-0.1,0-0.2,0-0.3,0    c-0.38-0.02-0.43-0.06-0.45-0.43c-0.01-0.16,0-0.33,0-0.5c0-5.61,0-11.23,0-16.84c0-0.8,0.04-0.77-0.75-0.77    c-1.25,0-2.51,0-3.76,0c-0.15,0-0.3,0-0.45-0.01c-0.2-0.01-0.3-0.12-0.3-0.32c0-0.12-0.01-0.23-0.01-0.35c0-1.65,0-3.3,0-4.95    c0-0.07,0-0.13,0-0.2c0.02-0.42,0.05-0.46,0.46-0.47c0.48-0.01,0.96,0,1.44,0c0.94,0,1.88,0,2.82,0c0.54,0,0.55-0.01,0.55-0.56    c0-1.78,0-3.57,0-5.35c0-0.15,0-0.3,0-0.45c0-0.24,0.1-0.37,0.36-0.37c0.12,0,0.23,0,0.35,0c2,0,4,0,5.99,0c0.1,0,0.2,0,0.3,0    c0.32,0.03,0.37,0.07,0.38,0.39c0.01,0.51,0.01,1.02,0.01,1.54c0,1.37,0,2.74,0,4.11c0,0.69,0,0.69,0.71,0.69    c1.29,0,2.58,0,3.86,0c0.13,0,0.26,0.01,0.4,0c0.22,0,0.34,0.11,0.35,0.33c0.01,0.13,0.01,0.26,0.01,0.4c0,1.62,0,3.24,0,4.85    c0,0.13,0,0.26-0.01,0.4c-0.01,0.19-0.12,0.3-0.31,0.31c-0.15,0.01-0.3,0.01-0.45,0.01c-1.34,0-2.68,0-4.01,0    c-0.54,0-0.55,0.01-0.55,0.56C213.99,62.36,213.99,65.25,213.99,68.14z"></path>
		<path d="M101.41,55.96c0.49-0.56,0.97-1.12,1.55-1.59c2.05-1.68,4.38-2.37,7.01-2.07c0.45,0.05,0.88,0.13,1.31,0.27    c0.42,0.14,0.45,0.2,0.28,0.61c-0.46,1.11-0.93,2.22-1.4,3.33c-0.4,0.94-0.79,1.89-1.19,2.83c-0.18,0.43-0.19,0.44-0.66,0.3    c-1.34-0.38-2.65-0.32-3.91,0.28c-1.6,0.76-2.51,2.03-2.8,3.77c-0.07,0.41-0.09,0.82-0.09,1.23c0,3.91,0,7.83,0,11.74    c0,0.78,0,0.78-0.8,0.78c-1.93,0-3.86,0-5.8,0c-0.12,0-0.23,0-0.35,0c-0.38-0.02-0.42-0.06-0.44-0.43c-0.01-0.13,0-0.26,0-0.4    c0-7.73,0-15.45,0-23.18c0-0.88-0.03-0.82,0.8-0.82c1.87,0,3.73,0,5.6,0c0.12,0,0.23,0,0.35,0c0.37,0.02,0.43,0.06,0.43,0.44    c0.01,0.81,0,1.62,0.01,2.43c0,0.15,0,0.29,0,0.44C101.34,55.93,101.37,55.95,101.41,55.96z"></path>
		<path d="M199.91,65.08c0,3.86,0,7.72,0,11.59c0,0.77,0,0.78-0.75,0.78c-1.96,0-3.93,0-5.89,0c-0.12,0-0.23,0-0.35,0    c-0.32-0.02-0.36-0.07-0.39-0.39c-0.01-0.15,0-0.3,0-0.45c0-7.72,0-15.45,0-23.17c0-0.87-0.03-0.82,0.8-0.82c1.93,0,3.86,0,5.79,0    c0.13,0,0.26-0.01,0.4,0c0.32,0.02,0.37,0.07,0.39,0.38c0.01,0.16,0.01,0.33,0.01,0.49C199.91,57.36,199.91,61.22,199.91,65.08z"></path>
		<path d="M191.73,45.99c-0.07-2.43,2.06-4.51,4.5-4.5c2.33,0.01,4.48,1.97,4.49,4.48c0.01,2.32-1.87,4.51-4.51,4.5    C193.43,50.46,191.65,48.11,191.73,45.99z"></path>
		<path d="M57.33,68.46c1.61,0.07,3.22,0.14,4.83,0.23c0.31,0.02,0.62,0.06,0.93,0.09c0.74,0.06,0.94,0.39,0.63,1.05    c-0.62,1.32-1.56,2.35-2.81,3.1c-2.68,1.6-6.36,1.2-8.57-1.08c-0.6-0.61-1.08-1.28-1.44-2.05c-0.29-0.63-0.08-0.97,0.61-1.03    c1.43-0.11,2.85-0.23,4.29-0.23C56.3,68.55,56.81,68.45,57.33,68.46z"></path>
		<path d="M45.87,63.69c-0.03-1.1,0.31-2.08,1.05-2.91c0.85-0.95,2.24-1.29,3.34-0.79c0.88,0.4,1.39,1.14,1.7,2.03    c0.3,0.88,0.36,1.78,0.16,2.68c-0.22,1.03-0.82,1.75-1.86,2.05c-0.76,0.22-1.53,0.26-2.3,0.07c-1.19-0.29-2.02-1.34-2.09-2.64    C45.86,64.02,45.87,63.85,45.87,63.69z"></path>
		<path d="M65.69,66.93c-0.49,0.02-0.93-0.06-1.35-0.19c-0.87-0.27-1.48-0.83-1.72-1.7c-0.36-1.29-0.29-2.56,0.39-3.74    c1.04-1.81,3.1-2.08,4.6-0.64c1.16,1.12,1.55,3.31,0.83,4.74c-0.49,0.98-1.34,1.42-2.39,1.52C65.91,66.94,65.78,66.93,65.69,66.93    z"></path>
	</g>
</g>
</svg>
