<?xml version="1.0" encoding="UTF-8"?>
<!-- Generator: Adobe Illustrator 26.0.1, SVG Export Plug-In . SVG Version: 6.00 Build 0)  -->
<svg xmlns="http://www.w3.org/2000/svg" xmlns:xlink="http://www.w3.org/1999/xlink" version="1.1" id="Layer_1" x="0px" y="0px" viewBox="0 0 250 120" style="enable-background:new 0 0 250 120;" xml:space="preserve">
<g>
	<g>
		<path d="M23.44,60.71c0.27-0.5,0.66-0.83,1.26-0.81c0.56,0.02,1,0.37,1.16,0.97c0.49,1.85,1.28,3.55,2.46,5.06    c1.55,1.98,3.52,3.3,6.05,3.67c2.46,0.36,4.71-0.08,6.46-1.99c1.24-1.34,1.7-2.96,1.41-4.76c-0.19-1.2-0.91-2.05-1.88-2.73    c-1.42-1-3.03-1.61-4.63-2.25c-1.99-0.8-4.01-1.52-5.93-2.46c-1.64-0.81-3.13-1.82-4.25-3.31c-1.5-1.99-1.97-4.25-1.76-6.7    c0.14-1.67,0.62-3.24,1.53-4.66c1.57-2.45,3.88-3.9,6.64-4.63c3.63-0.96,7.2-0.74,10.68,0.72c0.76,0.32,1.23,0.16,1.69-0.53    c0.08-0.12,0.16-0.25,0.24-0.37c0.36-0.53,0.83-0.74,1.39-0.6c0.51,0.12,0.86,0.56,0.93,1.16c0.06,0.62,0.11,1.24,0.17,1.85    c0.21,2.29,0.45,4.57,0.84,6.83c0.11,0.64-0.3,1.28-0.92,1.42c-0.67,0.15-1.25-0.23-1.47-0.89c-0.46-1.37-1-2.7-1.89-3.86    c-1.24-1.61-2.75-2.85-4.77-3.35c-2.63-0.65-5.11,0.29-6.47,2.46c-1.44,2.29-0.89,4.78,1.4,6.21c1.5,0.93,3.16,1.54,4.8,2.16    c1.98,0.75,3.98,1.43,5.88,2.38c1.43,0.72,2.73,1.62,3.77,2.85c1.22,1.45,1.85,3.15,2.02,5.03c0.27,2.94-0.42,5.61-2.17,8    c-1.79,2.45-4.24,3.95-7.16,4.67c-3.95,0.97-7.79,0.67-11.46-1.16c-0.35-0.18-0.69-0.4-1.03-0.59c-0.65-0.36-1.24-0.21-1.65,0.41    c-0.12,0.19-0.23,0.38-0.35,0.57c-0.36,0.57-0.92,0.8-1.53,0.64c-0.54-0.14-0.89-0.63-0.9-1.3c-0.02-2.62-0.21-5.22-0.41-7.83    c-0.03-0.34-0.08-0.68-0.13-1.02C23.44,61.56,23.44,61.14,23.44,60.71z"></path>
		<path d="M117.44,75.51c0.04,1.03-0.06,2.31,0.06,3.59c0.13,1.33,0.66,1.98,1.95,2.31c0.6,0.15,0.9,0.45,0.93,0.93    c0.04,0.63-0.35,1.08-0.99,1.08c-1.27,0-2.54-0.03-3.81-0.06c-1.72-0.05-3.44-0.03-5.16-0.02c-1.02,0.01-2.04,0.06-3.05,0.08    c-0.71,0.01-1.13-0.31-1.21-0.93c-0.08-0.59,0.27-1.05,0.93-1.23c0.24-0.06,0.49-0.12,0.72-0.21c0.66-0.26,0.99-0.76,1.09-1.44    c0.05-0.37,0.08-0.73,0.08-1.1c0-7.49,0-14.98-0.01-22.47c0-0.66-0.07-1.32-0.21-1.97c-0.21-0.97-0.77-1.59-1.72-1.88    c-0.75-0.23-0.95-0.54-0.92-1.31c0.02-0.52,0.3-0.87,0.83-0.96c0.94-0.16,1.88-0.27,2.82-0.43c1.92-0.33,3.81-0.78,5.68-1.28    c0.97-0.26,1.41,0.03,1.59,1.03c0.03,0.16,0.06,0.31,0.09,0.47c0.16,0.76,0.81,1.06,1.47,0.65c0.96-0.59,1.95-1.12,3.05-1.41    c3.37-0.9,6.54-0.6,9.32,1.69c2.09,1.72,3.28,4.01,3.67,6.65c0.56,3.72-0.19,7.19-2.46,10.23c-2.04,2.73-4.79,4.29-8.22,4.58    c-1.78,0.15-3.47-0.14-5.08-0.94c-0.77-0.38-1.43,0.04-1.43,0.9C117.44,73.12,117.44,74.19,117.44,75.51z M117.36,59.88    c-0.01,1.98,0.01,3.96,0.08,5.94c0.02,0.55,0.13,1.07,0.34,1.58c0.3,0.72,0.8,1.25,1.55,1.48c1.54,0.49,2.95,0.27,4.14-0.9    c0.41-0.41,0.75-0.89,1.01-1.41c1.16-2.25,1.48-4.67,1.3-7.15c-0.12-1.63-0.5-3.21-1.31-4.65c-0.93-1.65-2.23-2.7-4.25-2.52    c-1.04,0.09-1.83,0.57-2.31,1.5c-0.37,0.7-0.53,1.47-0.54,2.25C117.35,57.29,117.36,58.59,117.36,59.88z"></path>
		<path d="M78.13,60.2c0,2.26,0,4.52,0,6.78c0,0.11,0,0.21,0,0.32c-0.01,1.58,0.34,2.03,1.87,2.42c0.61,0.16,0.98,0.62,0.91,1.16    c-0.07,0.59-0.54,0.99-1.21,0.96c-2.7-0.15-5.39-0.16-8.09-0.15c-0.97,0-1.93,0.05-2.89,0.14c-0.63,0.06-1.12-0.26-1.27-0.84    c-0.16-0.62,0.07-1.27,0.64-1.4c1.38-0.33,1.66-1.34,1.67-2.52c0.01-1.61,0.02-3.22-0.04-4.83c-0.05-1.53-0.01-3.07-0.05-4.6    c-0.02-0.87-0.04-1.74-0.22-2.6c-0.36-1.73-1.34-2.53-3.1-2.55c-1.31-0.02-2.42,0.46-3.44,1.24c-0.33,0.25-0.42,0.58-0.41,0.98    c0.09,3.24,0.07,6.47,0.08,9.71c0,0.86-0.01,1.72,0.01,2.58c0.01,0.35,0.05,0.71,0.11,1.06c0.12,0.81,0.56,1.35,1.37,1.56    c0.45,0.12,0.74,0.39,0.84,0.85c0.17,0.73-0.31,1.39-1.06,1.38c-1.24-0.02-2.48-0.08-3.73-0.11c-2.17-0.05-4.34-0.09-6.5,0.02    c-0.4,0.02-0.79,0.06-1.19,0.08c-0.58,0.02-1.04-0.38-1.13-0.96c-0.08-0.52,0.24-1.02,0.78-1.18c0.34-0.1,0.7-0.15,1.02-0.31    c0.54-0.27,0.83-0.7,0.87-1.31c0.27-3.67,0.04-7.34,0.08-11.01c0-0.41-0.02-0.82-0.08-1.22c-0.15-1.15-0.68-1.98-1.85-2.32    c-0.58-0.17-0.88-0.62-0.84-1.15c0.04-0.57,0.39-0.96,1-1.07c2.71-0.51,5.35-1.25,7.97-2.1c0.84-0.27,1.34-0.02,1.61,0.83    c0.28,0.87,0.86,1.1,1.65,0.64c1.43-0.82,2.92-1.48,4.58-1.72c1.93-0.27,3.8-0.08,5.59,0.69c2.41,1.04,3.76,2.9,4.22,5.45    C78.22,56.77,78.25,58.48,78.13,60.2z"></path>
		<path d="M189.43,60.56c0,2.15,0,4.31,0,6.46c0,0.17,0,0.34,0,0.52c0.02,1.29,0.44,1.82,1.68,2.13c0.8,0.2,1.17,0.62,1.09,1.21    c-0.09,0.66-0.56,1-1.41,0.95c-2.64-0.16-5.29-0.15-7.93-0.14c-0.95,0-1.9,0.05-2.85,0.14c-0.63,0.06-1.14-0.28-1.26-0.84    c-0.15-0.68,0.1-1.28,0.72-1.43c1.2-0.29,1.55-1.15,1.57-2.22c0.04-2.01,0.03-4.02-0.03-6.02c-0.04-1.37-0.02-2.75-0.05-4.12    c-0.02-0.75-0.07-1.5-0.23-2.24c-0.36-1.64-1.34-2.42-3.02-2.47c-1.34-0.03-2.48,0.46-3.52,1.24c-0.3,0.22-0.41,0.54-0.4,0.9    c0.02,0.94,0.06,1.87,0.06,2.81c0.01,3.09,0.01,6.18,0.02,9.28c0,0.41,0.04,0.82,0.09,1.22c0.12,0.86,0.54,1.47,1.44,1.69    c0.45,0.11,0.72,0.42,0.81,0.88c0.14,0.72-0.35,1.35-1.08,1.34c-1.22-0.02-2.43-0.08-3.65-0.11c-2.19-0.06-4.39-0.09-6.58,0.01    c-0.4,0.02-0.79,0.06-1.19,0.08c-0.57,0.02-1.02-0.36-1.11-0.92c-0.09-0.56,0.22-1.06,0.77-1.22c0.37-0.1,0.75-0.17,1.09-0.35    c0.48-0.26,0.75-0.65,0.79-1.2c0.19-2.57,0.18-5.15,0.11-7.72c-0.03-1.24-0.03-2.48-0.03-3.73c0-0.37-0.04-0.74-0.11-1.1    c-0.19-1.03-0.74-1.75-1.78-2.07c-0.71-0.22-1.02-0.83-0.81-1.48c0.16-0.47,0.52-0.68,0.98-0.76c1.22-0.22,2.43-0.52,3.63-0.83    c1.43-0.37,2.85-0.79,4.26-1.25c0.88-0.29,1.36-0.05,1.64,0.82c0.27,0.84,0.86,1.09,1.62,0.65c1.45-0.82,2.94-1.5,4.61-1.73    c2.17-0.3,4.24-0.03,6.2,0.99c2.06,1.09,3.17,2.84,3.6,5.08C189.56,56.84,189.52,58.7,189.43,60.56z"></path>
		<path d="M103.46,56.39c-0.11,3.25-0.05,6.5-0.1,9.75c-0.01,0.47-0.02,0.95,0.12,1.42c0.28,0.9,0.95,1.15,1.75,0.65    c0.06-0.03,0.11-0.07,0.17-0.11c0.54-0.33,1.11-0.27,1.46,0.18c0.37,0.46,0.32,1.03-0.15,1.5c-0.9,0.88-1.9,1.64-3.07,2.16    c-1,0.45-2.04,0.76-3.15,0.69c-1.79-0.1-3.35-0.71-4.51-2.14c-0.44-0.54-0.88-0.6-1.5-0.22c-1.7,1.06-3.49,1.88-5.47,2.25    c-1.21,0.22-2.41,0.24-3.62-0.02c-3.57-0.75-4.62-4.24-3.59-6.79c0.45-1.11,1.18-2,2.08-2.75c1.68-1.4,3.65-2.27,5.7-2.97    c1.49-0.51,3.02-0.88,4.56-1.19c0.68-0.14,0.93-0.46,0.93-1.16c0.01-1.03,0-2.06-0.08-3.09c-0.09-1.25-0.92-2.15-2.18-2.37    c-0.54-0.09-1.08-0.11-1.61,0.03c-1.11,0.28-1.88,1.17-2.04,2.33c-0.07,0.55-0.13,1.1-0.25,1.64c-0.25,1.16-0.97,1.93-2.11,2.25    c-1.2,0.34-2.31,0.14-3.24-0.74c-0.85-0.8-1.04-2.14-0.52-3.31c0.41-0.93,1.09-1.65,1.9-2.25c1.48-1.11,3.15-1.82,4.91-2.34    c2.08-0.61,4.21-0.93,6.38-0.89c1.28,0.02,2.56,0.16,3.78,0.6c2.19,0.79,3.39,2.45,3.43,4.78    C103.47,54.99,103.46,55.69,103.46,56.39z M95.02,64.56c0-0.7,0-1.4,0-2.1c0-0.03,0-0.05,0-0.08c-0.02-0.72-0.56-1.14-1.26-0.97    c-0.63,0.15-1.24,0.38-1.81,0.69c-1.35,0.75-2.1,1.87-2.05,3.44c0.04,1.49,0.85,2.47,2.22,2.65c0.86,0.12,1.65-0.13,2.37-0.59    c0.36-0.23,0.53-0.53,0.53-0.95C95.02,65.96,95.02,65.26,95.02,64.56z"></path>
		<path d="M148.36,36.42c3.03,0.12,6.14,0.09,9.25,0.08c1.16-0.01,2.33-0.06,3.49-0.08c0.77-0.01,1.3,0.43,1.34,1.1    c0.03,0.65-0.44,1.15-1.18,1.25c-0.2,0.03-0.39,0.06-0.59,0.09c-1.39,0.27-1.96,0.97-2.1,2.52c-0.12,1.33-0.16,2.66-0.15,4    c0.01,2.56-0.03,5.13,0.02,7.69c0.07,3.66,0,7.32,0.08,10.98c0.02,1.12,0.02,2.24,0.21,3.36c0.17,0.96,0.73,1.55,1.65,1.83    c0.28,0.08,0.57,0.13,0.85,0.18c0.76,0.14,1.16,0.63,1.09,1.36c-0.06,0.65-0.61,1.1-1.35,1.05c-3.59-0.24-7.19-0.12-10.79-0.14    c-1.08-0.01-2.17,0.05-3.25,0.14c-0.46,0.04-0.9,0.01-1.26-0.34c-0.64-0.63-0.37-1.72,0.49-1.97c0.13-0.04,0.26-0.06,0.39-0.08    c1.63-0.26,2.25-0.92,2.46-2.57c0.13-1.02,0.16-2.05,0.16-3.08c0-6.75,0-13.5-0.02-20.25c0-0.93-0.03-1.87-0.22-2.8    c-0.19-0.94-0.73-1.53-1.69-1.71c-0.35-0.07-0.7-0.13-1.05-0.23c-0.62-0.17-0.99-0.72-0.91-1.3c0.09-0.64,0.56-1.05,1.22-1.06    C147.09,36.42,147.69,36.42,148.36,36.42z"></path>
		<path d="M192.14,60.77c0.12-4.72,2.34-8.17,6.56-10.21c4.19-2.03,8.53-2.19,12.89-0.48c1.12,0.44,2.12,1.09,2.87,2.06    c0.96,1.24,1.33,2.6,0.59,4.07c-0.57,1.13-1.54,1.78-2.84,1.75c-1.27-0.03-2.26-0.6-2.84-1.76c-0.37-0.73-0.67-1.49-1.04-2.23    c-0.38-0.76-0.85-1.47-1.58-1.95c-0.91-0.6-2-0.53-2.82,0.19c-0.56,0.49-0.95,1.11-1.2,1.8c-1.22,3.37-1.28,6.74,0.12,10.08    c0.46,1.08,1.11,2.05,2,2.83c2.01,1.76,4.48,1.97,6.79,0.62c0.6-0.35,1.12-0.79,1.67-1.21c0.84-0.63,1.95-0.18,2.12,0.85    c0.08,0.45-0.1,0.83-0.42,1.14c-2.21,2.14-4.82,3.5-7.85,4.05c-2.89,0.53-5.7,0.25-8.36-1.02c-3.8-1.81-5.98-4.83-6.57-9    C192.17,61.84,192.18,61.31,192.14,60.77z"></path>
		<path d="M226.43,68.11c0,2.51-2.09,4.58-4.61,4.58c-2.48,0-4.54-2.09-4.52-4.57c0.02-2.59,2.05-4.64,4.55-4.62    C224.37,63.52,226.43,65.59,226.43,68.11z"></path>
	</g>
</g>
</svg>
