<?xml version="1.0" encoding="UTF-8"?>
<!-- Generator: Adobe Illustrator 26.0.1, SVG Export Plug-In . SVG Version: 6.00 Build 0)  -->
<svg xmlns="http://www.w3.org/2000/svg" xmlns:xlink="http://www.w3.org/1999/xlink" version="1.1" id="Layer_1" x="0px" y="0px" viewBox="0 0 250 120" style="enable-background:new 0 0 250 120;" xml:space="preserve">
<g>
	<g>
		<path d="M107.29,63.76c-0.46-0.41-0.89-0.69-1.31-0.99c-0.88-0.63-1.72-1.3-2.39-2.16c-2.15-2.76-2.05-6.49,0.46-9.1    c1.43-1.49,3.22-2.29,5.21-2.69c1.21-0.25,2.44-0.33,3.68-0.33c6.82,0,13.65,0,20.47,0c0.35,0,0.69,0.01,1.04,0.08    c0.2,0.04,0.31,0.15,0.32,0.35c0.01,0.21,0.02,0.42,0.02,0.63c0,4.3,0,8.6,0,12.9c0,0.42,0.02,0.83,0.14,1.24    c0.35,1.24,1.49,1.94,2.88,1.75c1.18-0.16,1.86-0.84,2.16-1.97c0.21-0.78,0.34-1.56,0.34-2.37c0-2.85,0-5.71,0-8.56    c0-0.54-0.07-1.08-0.18-1.6c-0.15-0.7-0.51-1.25-1.12-1.63c-0.03-0.02-0.06-0.03-0.09-0.05c-0.08-0.06-0.2-0.1-0.15-0.24    c0.03-0.1,0.14-0.1,0.22-0.1c0.5-0.03,1.01-0.08,1.51-0.09c1.6-0.06,3.2-0.06,4.8-0.16c0.83-0.05,1.67-0.05,2.5-0.1    c0.35-0.02,0.42,0.02,0.46,0.4c0.04,0.36,0.04,0.73,0.04,1.09c0,3.36,0,6.72,0,10.08c0,2.14,0,4.28,0,6.42    c0,0.61,0.08,1.21,0.21,1.81c0.14,0.68,0.51,1.21,1.05,1.63c0.11,0.08,0.25,0.13,0.31,0.28c-0.07,0.18-0.23,0.11-0.36,0.11    c-2.91,0-5.81,0.01-8.72,0.01c-0.4,0-0.46-0.04-0.47-0.44c-0.01-0.42,0-0.84-0.01-1.25c0-0.17,0.02-0.34-0.06-0.53    c-0.24,0.09-0.4,0.24-0.58,0.38c-1.18,0.89-2.47,1.58-3.95,1.81c-2.37,0.37-4.59-0.07-6.55-1.48c-1.46-1.05-2.19-2.57-2.45-4.33    c-0.13-0.9-0.09-1.81-0.09-2.71c-0.01-2.75,0-5.5,0-8.25c0-0.14,0-0.28,0-0.42c-0.01-0.53-0.04-0.57-0.56-0.57    c-1.48,0-2.96,0-4.44,0c-0.07,0-0.14,0-0.21,0.01c-0.2,0.01-0.24,0.11-0.14,0.27c0.25,0.4,0.53,0.78,0.75,1.19    c1.4,2.55,1,5.34-0.89,7.33c-0.87,0.92-1.94,1.53-3.07,2.03c-1.43,0.62-2.92,1.02-4.45,1.3c-0.86,0.15-1.72,0.26-2.58,0.39    c-0.45,0.07-0.62,0.25-0.66,0.61c-0.05,0.42,0.14,0.77,0.53,0.92c0.13,0.05,0.27,0.08,0.4,0.1c0.19,0.02,0.38,0.03,0.57,0.04    c1.74,0.04,3.48,0.06,5.22,0.11c1.72,0.05,3.39,0.33,4.91,1.21c2.17,1.25,3.39,3.1,3.45,5.59c0.05,2.23-0.92,4.04-2.7,5.39    c-1.66,1.27-3.58,1.91-5.63,2.21c-2.28,0.33-4.58,0.41-6.88,0.32c-2.03-0.08-4-0.51-5.86-1.37c-0.93-0.43-1.83-0.93-2.59-1.64    c-1.63-1.53-1.5-4.09,0.42-5.49c0.94-0.68,2.01-1.01,3.15-1.15c1.06-0.13,2.12-0.03,3.17,0.1c0.12,0.01,0.24,0.03,0.36,0.07    c0.13,0.04,0.15,0.14,0.06,0.24c-0.09,0.08-0.19,0.15-0.29,0.22c-1.33,0.86-1.17,2.43-0.38,3.36c0.31,0.36,0.69,0.64,1.12,0.84    c1.23,0.6,2.53,0.73,3.87,0.59c0.82-0.09,1.6-0.34,2.33-0.71c0.81-0.42,1.31-1.08,1.47-1.98c0.12-0.68,0.08-1.36-0.14-2.01    c-0.33-0.97-1.04-1.49-2.02-1.69c-1.08-0.22-2.17-0.31-3.26-0.44c-1.02-0.13-2.05-0.01-3.07-0.13c-2.13-0.26-3.67-1.7-4.1-3.81    c-0.05-0.24-0.1-0.48-0.1-0.72c-0.01-0.81,0.3-1.28,1.06-1.55c0.41-0.15,0.83-0.27,1.24-0.4    C106.86,63.88,107.02,63.83,107.29,63.76z M112.33,52.76c-0.95-0.07-1.82,0.61-2.18,1.49c-0.46,1.14-0.65,2.3-0.39,3.51    c0.16,0.76,0.43,1.46,1.03,2c0.75,0.67,1.86,0.83,2.77,0.39c0.75-0.36,1.04-1.04,1.23-1.78c0.13-0.52,0.22-1.05,0.31-1.58    c0.03-0.17,0.06-0.35,0.02-0.52c-0.16-0.75-0.28-1.5-0.63-2.2C114.07,53.19,113.38,52.74,112.33,52.76z"></path>
		<path d="M76.32,49.01c0.04-0.1,0.13-0.11,0.21-0.11c0.56-0.04,1.11-0.09,1.67-0.1c1.62-0.01,3.23-0.14,4.85-0.17    c0.73-0.01,1.46-0.06,2.19-0.08c0.62-0.01,0.63,0,0.65,0.64c0.01,0.38,0.02,0.77,0.04,1.15c0,0.1-0.02,0.21,0.07,0.3    c0.18,0.05,0.28-0.1,0.4-0.19c1.08-0.78,2.22-1.44,3.54-1.73c2.31-0.51,4.51-0.19,6.51,1.09c1.87,1.2,2.75,3,2.85,5.18    c0.17,3.79,0.05,7.59,0.08,11.38c0,0.35,0.01,0.7,0.02,1.04c0.02,1.03,0.45,1.84,1.28,2.44c0.16,0.11,0.45,0.2,0.36,0.43    c-0.07,0.2-0.35,0.08-0.53,0.08c-2.87,0.01-5.74,0.01-8.61,0c-0.42,0-0.47-0.05-0.48-0.49c-0.01-1.11,0-2.23,0-3.34    c0-3.22,0-6.44,0-9.66c0-0.49,0.02-0.97-0.09-1.45c-0.34-1.38-1.39-2.1-2.8-1.88c-1.15,0.18-1.93,0.82-2.33,1.92    c-0.17,0.46-0.28,0.93-0.28,1.43c0,3.46,0,6.93,0.01,10.39c0,0.86,0.27,1.64,0.82,2.31c0.18,0.22,0.42,0.36,0.63,0.54    c0.05,0.05,0.11,0.1,0.1,0.17c-0.02,0.11-0.12,0.12-0.2,0.12c-0.14,0.01-0.28,0.01-0.42,0.01c-4.79,0-9.57,0-14.36,0    c-1.23,0-2.43-0.15-3.58-0.6c-2.11-0.83-3.36-2.33-3.74-4.57c-0.2-1.17-0.16-2.36-0.17-3.54c0-0.79,0-0.79-0.78-0.63    c-0.94,0.2-1.86,0.47-2.64,1.06c-0.43,0.32-0.76,0.71-0.96,1.21c-0.62,1.55,0.41,2.96,1.68,3.36c0.71,0.22,1.44,0.23,2.16,0.33    c0.03,0,0.07,0,0.1,0c0.65,0.04,0.7,0.13,0.42,0.72c-0.33,0.69-0.69,1.37-1,2.07c-0.19,0.43-0.5,0.6-0.94,0.6    c-1.53,0-3.07,0.08-4.59-0.14c-1.6-0.23-3.13-0.7-4.44-1.69c-0.93-0.7-1.7-1.55-2.06-2.69c-0.74-2.33,0.06-5.47,2.86-6.72    c1.13-0.51,2.33-0.82,3.52-1.13c1.53-0.39,3.08-0.72,4.58-1.26c0.38-0.14,0.74-0.3,1.07-0.54c0.84-0.61,0.93-1.55,0.2-2.28    c-0.62-0.61-1.39-0.91-2.25-0.99c-0.73-0.07-1.45,0-2.18,0.16c-1.36,0.31-2.69,0.72-4.03,1.07c-0.18,0.05-0.38,0.19-0.54,0.03    c-0.14-0.15-0.01-0.33,0.04-0.49c0.39-1.23,0.8-2.45,1.18-3.68c0.18-0.59,0.54-0.93,1.16-1.06c1.98-0.43,3.98-0.68,6.01-0.57    c1.66,0.09,3.28,0.39,4.83,1.02c2.44,0.99,3.91,2.77,4.33,5.38c0.23,1.41,0.19,2.84,0.19,4.27c0,1.24,0,2.47,0,3.71    c0,0.7,0.07,1.39,0.31,2.05c0.49,1.34,1.54,2.11,2.97,2.15c0.38,0.01,0.77,0.01,1.15-0.02c0.36-0.03,0.44-0.13,0.48-0.49    c0.01-0.09,0.01-0.17,0.01-0.26c0.06-3.46,0.12-6.92,0.05-10.39c-0.03-1.43-0.01-2.85-0.08-4.28c-0.05-1.02-0.38-1.91-1.36-2.42    C76.4,49.16,76.32,49.12,76.32,49.01z"></path>
		<path d="M175.41,48.93c0.58-0.04,1.13-0.12,1.67-0.12c1.67,0,3.34-0.14,5.01-0.17c0.75-0.01,1.49-0.07,2.24-0.08    c0.62-0.01,0.62-0.01,0.63,0.64c0,0.54,0,1.08,0,1.66c0.29-0.05,0.38-0.27,0.51-0.43c0.84-1.04,1.88-1.75,3.21-1.99    c0.62-0.11,1.24-0.17,1.87-0.07c0.54,0.09,0.77,0.31,0.78,0.86c0.01,1.41,0.01,2.82,0,4.23c0,0.39-0.07,0.45-0.47,0.46    c-0.61,0.01-1.22-0.01-1.83,0.01c-0.68,0.02-1.34,0.14-1.97,0.43c-1.31,0.61-1.93,1.7-1.99,3.07c-0.11,2.31-0.17,4.63-0.09,6.94    c0.03,1.01,0.05,2.02,0.08,3.02c0.03,1.14,0.37,2.12,1.43,2.73c0.04,0.02,0.07,0.07,0.1,0.11c-0.02,0.17-0.16,0.17-0.27,0.18    c-0.19,0.02-0.38,0.02-0.57,0.02c-4.75,0-9.51-0.01-14.26-0.01c-1.5,0-2.95-0.3-4.3-0.94c-1.88-0.9-2.82-2.45-3.07-4.48    c-0.13-1.09-0.07-2.19-0.09-3.28c0-0.12,0-0.24,0-0.37c-0.01-0.55-0.04-0.57-0.57-0.38c-0.92,0.33-1.83,0.67-2.71,1.1    c-1.13,0.55-1.47,1.53-1.22,2.7c0.23,1.12,0.92,1.81,2.07,2c0.62,0.1,1.24,0.17,1.86,0.26c0.05,0.01,0.1,0,0.16,0.01    c0.62,0.06,0.68,0.15,0.41,0.69c-0.35,0.7-0.7,1.4-1.04,2.1c-0.19,0.39-0.49,0.58-0.91,0.58c-1.55,0-3.1,0.08-4.64-0.14    c-1.73-0.25-3.34-0.82-4.73-1.93c-2.88-2.32-2.5-6.43,0.02-8.46c1.26-1.02,2.76-1.45,4.28-1.83c1.45-0.36,2.93-0.61,4.36-1.06    c0.48-0.15,0.95-0.34,1.4-0.58c1.21-0.65,1.11-2.09,0.12-2.72c-0.61-0.39-1.27-0.65-2-0.71c-0.73-0.06-1.45,0-2.18,0.17    c-1.29,0.3-2.55,0.69-3.83,1.03c-0.07,0.02-0.13,0.04-0.2,0.05c-0.16,0.03-0.35,0.16-0.49-0.01c-0.11-0.14,0-0.3,0.04-0.45    c0.4-1.28,0.82-2.55,1.22-3.83c0.16-0.52,0.48-0.79,1.03-0.9c1.95-0.41,3.91-0.68,5.9-0.59c1.87,0.08,3.7,0.43,5.43,1.18    c2.05,0.9,3.29,2.45,3.78,4.62c0.21,0.94,0.3,1.89,0.3,2.85c0,2.07,0.13,4.14,0.1,6.21c-0.01,0.58,0.11,1.14,0.31,1.69    c0.45,1.22,1.36,1.86,2.62,2.03c0.5,0.07,1.01,0.04,1.51,0c0.45-0.04,0.53-0.12,0.54-0.59c0.01-1.43,0.01-2.85,0.01-4.28    c0-3.22,0-6.44,0.01-9.66c0-0.6-0.05-1.18-0.22-1.75c-0.2-0.66-0.55-1.2-1.15-1.55c-0.06-0.03-0.11-0.08-0.16-0.13    C175.44,49.07,175.44,49.05,175.41,48.93z"></path>
		<path d="M204.86,39.48c0.17-0.16,0.37-0.11,0.55-0.12c1.82-0.07,3.65-0.1,5.47-0.23c1.02-0.07,2.05-0.01,3.07-0.15    c0.52-0.07,0.62,0.04,0.63,0.56c0.01,0.5,0.02,1.01,0.02,1.51c0.01,8.37,0.01,16.74,0.02,25.11c0,0.59,0,1.18,0.1,1.77    c0.15,0.9,0.46,1.68,1.32,2.13c0.08,0.04,0.14,0.1,0.14,0.21c-0.17,0.17-0.39,0.12-0.59,0.12c-2.78,0-5.57,0-8.35,0    c-0.7,0-0.77-0.08-0.79-0.78c0-0.17,0-0.35,0-0.52c0-3.81-0.01-7.62,0-11.43c0-0.72-0.08-1.43-0.24-2.12    c-0.22-0.92-0.67-1.68-1.57-2.1c-1.19-0.55-2.55-0.2-3.37,0.85c-0.5,0.64-0.85,1.35-1.05,2.14c-0.58,2.32-0.5,4.63,0.32,6.88    c0.48,1.31,1.28,2.35,2.66,2.83c0.63,0.22,1.28,0.33,1.94,0.37c0.1,0.01,0.21,0,0.31,0.01c0.32,0.03,0.39,0.12,0.23,0.4    c-0.57,1.05-1.1,2.13-1.79,3.12c-0.15,0.21-0.34,0.34-0.57,0.43c-0.36,0.14-0.74,0.2-1.12,0.23c-1.98,0.15-3.84-0.23-5.54-1.31    c-2.82-1.8-4.48-4.38-5.01-7.66c-0.51-3.19,0-6.22,1.78-8.95c1.65-2.53,4.01-4.02,7.02-4.4c1.39-0.17,2.74,0.1,4.04,0.62    c0.48,0.19,0.95,0.44,1.42,0.66c0.33,0.15,0.4,0.11,0.43-0.24c0-0.03,0-0.07,0-0.1c-0.04-1.29,0.09-2.57,0.05-3.86    c-0.04-1.22-0.04-2.43-0.07-3.65c-0.02-0.79-0.36-1.44-1-1.92C205.18,39.77,204.97,39.71,204.86,39.48z"></path>
		<path d="M44.35,60.91c0.21-0.18,0.22-0.37,0.27-0.53c1.73-5.5,3.45-10.99,5.18-16.49c0.2-0.64,0.31-1.28,0.3-1.95    c-0.01-0.59-0.21-1.09-0.6-1.51c-0.35-0.39-0.74-0.74-1.18-1.03c-0.07-0.05-0.16-0.11-0.14-0.2c0.02-0.13,0.15-0.13,0.25-0.13    c0.1-0.01,0.21-0.01,0.31-0.01c2.39,0,4.77,0,7.16,0c0.67,0,0.7,0.05,0.48,0.68c-0.91,2.68-1.82,5.37-2.73,8.06    c-0.69,2.04-1.39,4.09-2.08,6.13c-0.67,1.98-1.33,3.96-2,5.94c-0.85,2.52-1.72,5.04-2.57,7.56c-0.3,0.89-0.59,1.78-0.89,2.67    c-0.13,0.4-0.2,0.45-0.6,0.34c-2.19-0.58-4.28-1.36-6.09-2.77c-1.48-1.15-2.57-2.58-3.26-4.32c-0.66-1.67-1.2-3.38-1.8-5.07    c-0.91-2.54-1.82-5.08-2.74-7.62c-0.94-2.6-1.87-5.21-2.81-7.81c-0.19-0.52-0.4-1.04-0.66-1.54c-0.37-0.73-0.89-1.32-1.58-1.77    c-0.06-0.04-0.12-0.07-0.17-0.12c-0.09-0.07-0.14-0.15-0.1-0.27c0.04-0.11,0.12-0.17,0.23-0.18c0.12-0.02,0.24-0.02,0.36-0.02    c2.99,0,5.99-0.01,8.98,0c0.78,0,1.09,0.23,1.36,1.04c0.44,1.28,0.86,2.58,1.29,3.86c0.93,2.75,1.87,5.5,2.8,8.25    c0.87,2.55,1.73,5.11,2.59,7.66C44.05,60.15,44.2,60.5,44.35,60.91z"></path>
		<path d="M224.14,42.15c0.08,1.83-1.57,3.59-3.59,3.56c-1.99-0.04-3.56-1.61-3.56-3.61c0-1.97,1.61-3.54,3.61-3.55    C222.5,38.53,224.24,40.18,224.14,42.15z M220.54,45.03c1.65,0.07,2.96-1.33,2.95-2.86c-0.01-1.67-1.23-2.95-2.85-2.97    c-1.68-0.01-2.97,1.24-2.98,2.89C217.63,43.71,218.97,45.09,220.54,45.03z"></path>
		<path d="M219.1,42.17c0-0.4-0.01-0.8,0-1.2c0.02-0.39,0.08-0.44,0.48-0.45c0.42-0.01,0.84-0.01,1.25,0    c0.47,0.02,0.77,0.22,0.88,0.6c0.12,0.41,0.02,0.78-0.33,1.02c-0.26,0.17-0.21,0.29-0.05,0.49c0.2,0.26,0.39,0.54,0.55,0.82    c0.12,0.2,0.02,0.33-0.21,0.33c-0.2,0-0.33-0.09-0.43-0.25c-0.16-0.25-0.33-0.49-0.5-0.73c-0.13-0.19-0.3-0.34-0.54-0.39    c-0.32-0.07-0.46,0.02-0.49,0.35c-0.02,0.22-0.01,0.45-0.02,0.68c-0.01,0.17-0.08,0.31-0.27,0.32c-0.23,0.01-0.31-0.14-0.31-0.33    C219.1,43,219.11,42.58,219.1,42.17C219.1,42.17,219.1,42.17,219.1,42.17z M220.42,41.87c0.05-0.01,0.21-0.01,0.36-0.04    c0.2-0.04,0.36-0.14,0.37-0.38c0.01-0.25-0.15-0.38-0.37-0.43c-0.26-0.06-0.52-0.04-0.78-0.02c-0.19,0.01-0.26,0.13-0.29,0.31    C219.65,41.75,219.78,41.87,220.42,41.87z"></path>
	</g>
</g>
</svg>
